<?xml version="1.0" encoding="utf-8" standalone="no"?>
<!DOCTYPE svg PUBLIC "-//W3C//DTD SVG 1.1//EN"
  "http://www.w3.org/Graphics/SVG/1.1/DTD/svg11.dtd">
<svg xmlns:xlink="http://www.w3.org/1999/xlink" width="720pt" height="432pt" viewBox="0 0 720 432" xmlns="http://www.w3.org/2000/svg" version="1.1">
 <metadata>
  <rdf:RDF xmlns:dc="http://purl.org/dc/elements/1.1/" xmlns:cc="http://creativecommons.org/ns#" xmlns:rdf="http://www.w3.org/1999/02/22-rdf-syntax-ns#">
   <cc:Work>
    <dc:type rdf:resource="http://purl.org/dc/dcmitype/StillImage"/>
    <dc:date>2024-07-27T13:54:45.713961</dc:date>
    <dc:format>image/svg+xml</dc:format>
    <dc:creator>
     <cc:Agent>
      <dc:title>Matplotlib v3.9.1, https://matplotlib.org/</dc:title>
     </cc:Agent>
    </dc:creator>
   </cc:Work>
  </rdf:RDF>
 </metadata>
 <defs>
  <style type="text/css">*{stroke-linejoin: round; stroke-linecap: butt}</style>
 </defs>
 <g id="figure_1">
  <g id="patch_1">
   <path d="M 0 432 
L 720 432 
L 720 0 
L 0 0 
z
" style="fill: #ffffff"/>
  </g>
  <g id="axes_1">
   <g id="patch_2">
    <path d="M 90 384.48 
L 648 384.48 
L 648 51.84 
L 90 51.84 
z
" style="fill: #ffffff"/>
   </g>
   <g id="matplotlib.axis_1">
    <g id="xtick_1">
     <g id="line2d_1">
      <path d="M 97.871473 384.48 
L 97.871473 51.84 
" clip-path="url(#pcb5286c8ca)" style="fill: none; stroke: #b0b0b0; stroke-width: 0.8; stroke-linecap: square"/>
     </g>
     <g id="line2d_2">
      <defs>
       <path id="m62af09a772" d="M 0 0 
L 0 3.5 
" style="stroke: #000000; stroke-width: 0.8"/>
      </defs>
      <g>
       <use xlink:href="#m62af09a772" x="97.871473" y="384.48" style="stroke: #000000; stroke-width: 0.8"/>
      </g>
     </g>
     <g id="text_1">
      <!-- 2024-05-01 -->
      <g transform="translate(68.723036 399.250313) scale(0.1 -0.1)">
       <defs>
        <path id="NanumBarunGothic-32" d="M 582 3693 
Q 512 3622 512 3718 
L 512 4198 
Q 781 4410 1101 4557 
Q 1421 4704 1850 4704 
Q 2547 4704 2908 4387 
Q 3270 4070 3270 3418 
Q 3270 3200 3200 3001 
Q 3130 2803 3005 2601 
Q 2880 2400 2704 2182 
Q 2528 1965 2317 1709 
L 1011 224 
L 1011 218 
L 3341 218 
L 3341 -230 
L 352 -230 
L 352 250 
L 1843 1926 
Q 2093 2246 2259 2460 
Q 2426 2675 2525 2838 
Q 2624 3002 2665 3136 
Q 2707 3270 2707 3430 
Q 2707 3821 2505 4038 
Q 2304 4256 1862 4256 
Q 1555 4256 1235 4112 
Q 915 3968 582 3693 
z
" transform="scale(0.015625)"/>
        <path id="NanumBarunGothic-30" d="M 1869 4704 
Q 2630 4704 3036 4070 
Q 3443 3437 3443 2150 
Q 3443 870 3033 281 
Q 2624 -307 1869 -307 
Q 1491 -307 1196 -163 
Q 902 -19 700 281 
Q 499 582 396 1046 
Q 294 1510 294 2150 
Q 294 3437 700 4070 
Q 1107 4704 1869 4704 
z
M 1869 4256 
Q 851 4256 851 2138 
Q 851 1082 1104 608 
Q 1357 134 1869 134 
Q 2374 134 2630 608 
Q 2886 1082 2886 2138 
Q 2886 4256 1869 4256 
z
" transform="scale(0.015625)"/>
        <path id="NanumBarunGothic-34" d="M 134 877 
L 134 1421 
L 2259 4621 
L 2918 4621 
L 2918 1325 
L 3642 1325 
L 3642 877 
L 2918 877 
L 2918 -230 
L 2374 -230 
L 2374 877 
L 134 877 
z
M 2221 3795 
L 595 1318 
L 595 1312 
L 2400 1312 
L 2400 3782 
L 2406 4141 
L 2221 3795 
z
" transform="scale(0.015625)"/>
        <path id="NanumBarunGothic-2d" d="M 3213 2579 
L 3213 2099 
L 518 2099 
L 518 2579 
L 3213 2579 
z
" transform="scale(0.015625)"/>
        <path id="NanumBarunGothic-35" d="M 435 557 
Q 742 352 1062 253 
Q 1382 154 1747 154 
Q 1997 160 2208 246 
Q 2419 333 2572 480 
Q 2726 627 2812 828 
Q 2899 1030 2899 1274 
Q 2899 1555 2793 1750 
Q 2688 1946 2499 2067 
Q 2310 2189 2057 2243 
Q 1805 2298 1510 2298 
Q 1286 2298 1030 2266 
Q 774 2234 544 2182 
L 678 4595 
L 3187 4595 
L 3187 4154 
L 1139 4154 
L 1043 2669 
L 1056 2669 
Q 1242 2688 1408 2701 
Q 1574 2714 1741 2714 
Q 2118 2714 2432 2621 
Q 2746 2528 2973 2352 
Q 3200 2176 3325 1917 
Q 3450 1658 3450 1331 
Q 3450 992 3331 694 
Q 3213 397 2989 179 
Q 2765 -38 2445 -163 
Q 2125 -288 1728 -288 
Q 1299 -282 966 -195 
Q 634 -109 365 83 
L 365 525 
Q 365 563 387 572 
Q 410 582 435 557 
z
" transform="scale(0.015625)"/>
        <path id="NanumBarunGothic-31" d="M 781 3546 
L 781 3942 
Q 1043 4058 1276 4227 
Q 1510 4397 1709 4621 
L 2285 4621 
L 2285 -230 
L 1734 -230 
L 1734 4019 
L 1728 4019 
Q 1510 3846 1289 3721 
Q 1069 3597 845 3514 
Q 781 3488 781 3546 
z
" transform="scale(0.015625)"/>
       </defs>
       <use xlink:href="#NanumBarunGothic-32"/>
       <use xlink:href="#NanumBarunGothic-30" x="58.299988"/>
       <use xlink:href="#NanumBarunGothic-32" x="116.599976"/>
       <use xlink:href="#NanumBarunGothic-34" x="174.899963"/>
       <use xlink:href="#NanumBarunGothic-2d" x="233.199951"/>
       <use xlink:href="#NanumBarunGothic-30" x="291.499939"/>
       <use xlink:href="#NanumBarunGothic-35" x="349.799927"/>
       <use xlink:href="#NanumBarunGothic-2d" x="408.099915"/>
       <use xlink:href="#NanumBarunGothic-30" x="466.399902"/>
       <use xlink:href="#NanumBarunGothic-31" x="524.69989"/>
      </g>
     </g>
    </g>
    <g id="xtick_2">
     <g id="line2d_3">
      <path d="M 167.840125 384.48 
L 167.840125 51.84 
" clip-path="url(#pcb5286c8ca)" style="fill: none; stroke: #b0b0b0; stroke-width: 0.8; stroke-linecap: square"/>
     </g>
     <g id="line2d_4">
      <g>
       <use xlink:href="#m62af09a772" x="167.840125" y="384.48" style="stroke: #000000; stroke-width: 0.8"/>
      </g>
     </g>
     <g id="text_2">
      <!-- 2024-05-05 -->
      <g transform="translate(138.691688 399.250313) scale(0.1 -0.1)">
       <use xlink:href="#NanumBarunGothic-32"/>
       <use xlink:href="#NanumBarunGothic-30" x="58.299988"/>
       <use xlink:href="#NanumBarunGothic-32" x="116.599976"/>
       <use xlink:href="#NanumBarunGothic-34" x="174.899963"/>
       <use xlink:href="#NanumBarunGothic-2d" x="233.199951"/>
       <use xlink:href="#NanumBarunGothic-30" x="291.499939"/>
       <use xlink:href="#NanumBarunGothic-35" x="349.799927"/>
       <use xlink:href="#NanumBarunGothic-2d" x="408.099915"/>
       <use xlink:href="#NanumBarunGothic-30" x="466.399902"/>
       <use xlink:href="#NanumBarunGothic-35" x="524.69989"/>
      </g>
     </g>
    </g>
    <g id="xtick_3">
     <g id="line2d_5">
      <path d="M 237.808777 384.48 
L 237.808777 51.84 
" clip-path="url(#pcb5286c8ca)" style="fill: none; stroke: #b0b0b0; stroke-width: 0.8; stroke-linecap: square"/>
     </g>
     <g id="line2d_6">
      <g>
       <use xlink:href="#m62af09a772" x="237.808777" y="384.48" style="stroke: #000000; stroke-width: 0.8"/>
      </g>
     </g>
     <g id="text_3">
      <!-- 2024-05-09 -->
      <g transform="translate(208.66034 399.250313) scale(0.1 -0.1)">
       <defs>
        <path id="NanumBarunGothic-39" d="M 538 -96 
L 538 365 
Q 538 442 595 397 
Q 781 288 992 227 
Q 1203 166 1440 166 
Q 1779 166 2048 310 
Q 2317 454 2505 720 
Q 2694 986 2800 1357 
Q 2906 1728 2918 2182 
L 2906 2182 
Q 2842 2042 2730 1914 
Q 2618 1786 2470 1686 
Q 2323 1587 2137 1529 
Q 1952 1472 1747 1472 
Q 1389 1472 1120 1590 
Q 851 1709 672 1917 
Q 493 2125 403 2413 
Q 314 2701 314 3040 
Q 314 3418 426 3725 
Q 538 4032 742 4253 
Q 947 4474 1232 4592 
Q 1517 4710 1862 4710 
Q 2355 4710 2665 4502 
Q 2976 4294 3149 3968 
Q 3322 3642 3382 3238 
Q 3443 2835 3443 2445 
Q 3443 1926 3331 1436 
Q 3219 947 2979 566 
Q 2739 186 2361 -48 
Q 1984 -282 1453 -282 
Q 915 -282 538 -96 
z
M 2867 3098 
Q 2867 3334 2796 3545 
Q 2726 3757 2598 3917 
Q 2470 4077 2284 4173 
Q 2099 4269 1862 4269 
Q 1606 4269 1420 4163 
Q 1235 4058 1113 3891 
Q 992 3725 934 3507 
Q 877 3290 877 3072 
Q 877 2835 928 2624 
Q 979 2413 1094 2256 
Q 1210 2099 1389 2006 
Q 1568 1914 1824 1914 
Q 2080 1914 2269 2006 
Q 2458 2099 2586 2262 
Q 2714 2426 2781 2640 
Q 2848 2854 2867 3098 
z
" transform="scale(0.015625)"/>
       </defs>
       <use xlink:href="#NanumBarunGothic-32"/>
       <use xlink:href="#NanumBarunGothic-30" x="58.299988"/>
       <use xlink:href="#NanumBarunGothic-32" x="116.599976"/>
       <use xlink:href="#NanumBarunGothic-34" x="174.899963"/>
       <use xlink:href="#NanumBarunGothic-2d" x="233.199951"/>
       <use xlink:href="#NanumBarunGothic-30" x="291.499939"/>
       <use xlink:href="#NanumBarunGothic-35" x="349.799927"/>
       <use xlink:href="#NanumBarunGothic-2d" x="408.099915"/>
       <use xlink:href="#NanumBarunGothic-30" x="466.399902"/>
       <use xlink:href="#NanumBarunGothic-39" x="524.69989"/>
      </g>
     </g>
    </g>
    <g id="xtick_4">
     <g id="line2d_7">
      <path d="M 307.777429 384.48 
L 307.777429 51.84 
" clip-path="url(#pcb5286c8ca)" style="fill: none; stroke: #b0b0b0; stroke-width: 0.8; stroke-linecap: square"/>
     </g>
     <g id="line2d_8">
      <g>
       <use xlink:href="#m62af09a772" x="307.777429" y="384.48" style="stroke: #000000; stroke-width: 0.8"/>
      </g>
     </g>
     <g id="text_4">
      <!-- 2024-05-13 -->
      <g transform="translate(278.628992 399.250313) scale(0.1 -0.1)">
       <defs>
        <path id="NanumBarunGothic-33" d="M 1837 -288 
Q 1408 -282 1014 -154 
Q 621 -26 378 205 
L 378 666 
Q 378 710 400 720 
Q 422 730 454 698 
Q 800 410 1136 285 
Q 1472 160 1850 160 
Q 2061 160 2240 227 
Q 2419 294 2553 419 
Q 2688 544 2765 710 
Q 2842 877 2842 1082 
Q 2842 2074 1651 2074 
L 1478 2074 
L 1478 2528 
L 1555 2528 
Q 1786 2534 1997 2576 
Q 2208 2618 2368 2717 
Q 2528 2816 2624 2989 
Q 2720 3162 2720 3437 
Q 2720 3866 2467 4064 
Q 2214 4262 1830 4262 
Q 1523 4262 1196 4140 
Q 870 4019 589 3770 
Q 563 3750 540 3756 
Q 518 3763 518 3802 
L 518 4275 
Q 614 4358 748 4435 
Q 883 4512 1049 4573 
Q 1216 4634 1411 4672 
Q 1606 4710 1818 4710 
Q 2138 4710 2410 4633 
Q 2682 4557 2877 4400 
Q 3072 4243 3181 4009 
Q 3290 3776 3290 3469 
Q 3290 3245 3226 3056 
Q 3162 2867 3046 2716 
Q 2931 2566 2771 2464 
Q 2611 2362 2419 2323 
L 2419 2310 
Q 2880 2208 3142 1923 
Q 3405 1638 3405 1101 
Q 3405 832 3305 579 
Q 3206 326 3008 134 
Q 2810 -58 2518 -173 
Q 2227 -288 1837 -288 
z
" transform="scale(0.015625)"/>
       </defs>
       <use xlink:href="#NanumBarunGothic-32"/>
       <use xlink:href="#NanumBarunGothic-30" x="58.299988"/>
       <use xlink:href="#NanumBarunGothic-32" x="116.599976"/>
       <use xlink:href="#NanumBarunGothic-34" x="174.899963"/>
       <use xlink:href="#NanumBarunGothic-2d" x="233.199951"/>
       <use xlink:href="#NanumBarunGothic-30" x="291.499939"/>
       <use xlink:href="#NanumBarunGothic-35" x="349.799927"/>
       <use xlink:href="#NanumBarunGothic-2d" x="408.099915"/>
       <use xlink:href="#NanumBarunGothic-31" x="466.399902"/>
       <use xlink:href="#NanumBarunGothic-33" x="524.69989"/>
      </g>
     </g>
    </g>
    <g id="xtick_5">
     <g id="line2d_9">
      <path d="M 377.746082 384.48 
L 377.746082 51.84 
" clip-path="url(#pcb5286c8ca)" style="fill: none; stroke: #b0b0b0; stroke-width: 0.8; stroke-linecap: square"/>
     </g>
     <g id="line2d_10">
      <g>
       <use xlink:href="#m62af09a772" x="377.746082" y="384.48" style="stroke: #000000; stroke-width: 0.8"/>
      </g>
     </g>
     <g id="text_5">
      <!-- 2024-05-17 -->
      <g transform="translate(348.597644 399.250313) scale(0.1 -0.1)">
       <defs>
        <path id="NanumBarunGothic-37" d="M 1478 -230 
L 909 -230 
L 2842 4147 
L 262 4147 
L 262 4595 
L 3354 4595 
L 3354 4064 
L 1478 -230 
z
" transform="scale(0.015625)"/>
       </defs>
       <use xlink:href="#NanumBarunGothic-32"/>
       <use xlink:href="#NanumBarunGothic-30" x="58.299988"/>
       <use xlink:href="#NanumBarunGothic-32" x="116.599976"/>
       <use xlink:href="#NanumBarunGothic-34" x="174.899963"/>
       <use xlink:href="#NanumBarunGothic-2d" x="233.199951"/>
       <use xlink:href="#NanumBarunGothic-30" x="291.499939"/>
       <use xlink:href="#NanumBarunGothic-35" x="349.799927"/>
       <use xlink:href="#NanumBarunGothic-2d" x="408.099915"/>
       <use xlink:href="#NanumBarunGothic-31" x="466.399902"/>
       <use xlink:href="#NanumBarunGothic-37" x="524.69989"/>
      </g>
     </g>
    </g>
    <g id="xtick_6">
     <g id="line2d_11">
      <path d="M 447.714734 384.48 
L 447.714734 51.84 
" clip-path="url(#pcb5286c8ca)" style="fill: none; stroke: #b0b0b0; stroke-width: 0.8; stroke-linecap: square"/>
     </g>
     <g id="line2d_12">
      <g>
       <use xlink:href="#m62af09a772" x="447.714734" y="384.48" style="stroke: #000000; stroke-width: 0.8"/>
      </g>
     </g>
     <g id="text_6">
      <!-- 2024-05-21 -->
      <g transform="translate(418.566296 399.250313) scale(0.1 -0.1)">
       <use xlink:href="#NanumBarunGothic-32"/>
       <use xlink:href="#NanumBarunGothic-30" x="58.299988"/>
       <use xlink:href="#NanumBarunGothic-32" x="116.599976"/>
       <use xlink:href="#NanumBarunGothic-34" x="174.899963"/>
       <use xlink:href="#NanumBarunGothic-2d" x="233.199951"/>
       <use xlink:href="#NanumBarunGothic-30" x="291.499939"/>
       <use xlink:href="#NanumBarunGothic-35" x="349.799927"/>
       <use xlink:href="#NanumBarunGothic-2d" x="408.099915"/>
       <use xlink:href="#NanumBarunGothic-32" x="466.399902"/>
       <use xlink:href="#NanumBarunGothic-31" x="524.69989"/>
      </g>
     </g>
    </g>
    <g id="xtick_7">
     <g id="line2d_13">
      <path d="M 517.683386 384.48 
L 517.683386 51.84 
" clip-path="url(#pcb5286c8ca)" style="fill: none; stroke: #b0b0b0; stroke-width: 0.8; stroke-linecap: square"/>
     </g>
     <g id="line2d_14">
      <g>
       <use xlink:href="#m62af09a772" x="517.683386" y="384.48" style="stroke: #000000; stroke-width: 0.8"/>
      </g>
     </g>
     <g id="text_7">
      <!-- 2024-05-25 -->
      <g transform="translate(488.534948 399.250313) scale(0.1 -0.1)">
       <use xlink:href="#NanumBarunGothic-32"/>
       <use xlink:href="#NanumBarunGothic-30" x="58.299988"/>
       <use xlink:href="#NanumBarunGothic-32" x="116.599976"/>
       <use xlink:href="#NanumBarunGothic-34" x="174.899963"/>
       <use xlink:href="#NanumBarunGothic-2d" x="233.199951"/>
       <use xlink:href="#NanumBarunGothic-30" x="291.499939"/>
       <use xlink:href="#NanumBarunGothic-35" x="349.799927"/>
       <use xlink:href="#NanumBarunGothic-2d" x="408.099915"/>
       <use xlink:href="#NanumBarunGothic-32" x="466.399902"/>
       <use xlink:href="#NanumBarunGothic-35" x="524.69989"/>
      </g>
     </g>
    </g>
    <g id="xtick_8">
     <g id="line2d_15">
      <path d="M 587.652038 384.48 
L 587.652038 51.84 
" clip-path="url(#pcb5286c8ca)" style="fill: none; stroke: #b0b0b0; stroke-width: 0.8; stroke-linecap: square"/>
     </g>
     <g id="line2d_16">
      <g>
       <use xlink:href="#m62af09a772" x="587.652038" y="384.48" style="stroke: #000000; stroke-width: 0.8"/>
      </g>
     </g>
     <g id="text_8">
      <!-- 2024-05-29 -->
      <g transform="translate(558.5036 399.250313) scale(0.1 -0.1)">
       <use xlink:href="#NanumBarunGothic-32"/>
       <use xlink:href="#NanumBarunGothic-30" x="58.299988"/>
       <use xlink:href="#NanumBarunGothic-32" x="116.599976"/>
       <use xlink:href="#NanumBarunGothic-34" x="174.899963"/>
       <use xlink:href="#NanumBarunGothic-2d" x="233.199951"/>
       <use xlink:href="#NanumBarunGothic-30" x="291.499939"/>
       <use xlink:href="#NanumBarunGothic-35" x="349.799927"/>
       <use xlink:href="#NanumBarunGothic-2d" x="408.099915"/>
       <use xlink:href="#NanumBarunGothic-32" x="466.399902"/>
       <use xlink:href="#NanumBarunGothic-39" x="524.69989"/>
      </g>
     </g>
    </g>
    <g id="xtick_9">
     <g id="line2d_17">
      <path d="M 640.128527 384.48 
L 640.128527 51.84 
" clip-path="url(#pcb5286c8ca)" style="fill: none; stroke: #b0b0b0; stroke-width: 0.8; stroke-linecap: square"/>
     </g>
     <g id="line2d_18">
      <g>
       <use xlink:href="#m62af09a772" x="640.128527" y="384.48" style="stroke: #000000; stroke-width: 0.8"/>
      </g>
     </g>
     <g id="text_9">
      <!-- 2024-06-01 -->
      <g transform="translate(610.980089 399.250313) scale(0.1 -0.1)">
       <defs>
        <path id="NanumBarunGothic-36" d="M 3187 4026 
Q 3008 4134 2797 4198 
Q 2586 4262 2342 4262 
Q 2003 4262 1734 4099 
Q 1466 3936 1277 3657 
Q 1088 3379 982 3014 
Q 877 2650 864 2240 
L 877 2240 
Q 941 2381 1049 2512 
Q 1158 2643 1308 2742 
Q 1459 2842 1641 2899 
Q 1824 2957 2035 2957 
Q 2381 2957 2646 2838 
Q 2912 2720 3094 2509 
Q 3277 2298 3373 2010 
Q 3469 1722 3469 1382 
Q 3469 1005 3357 697 
Q 3245 390 3037 172 
Q 2829 -45 2544 -163 
Q 2259 -282 1914 -282 
Q 1421 -282 1113 -74 
Q 806 134 633 460 
Q 461 787 400 1187 
Q 339 1587 339 1978 
Q 339 2470 451 2960 
Q 563 3450 803 3837 
Q 1043 4224 1420 4467 
Q 1798 4710 2330 4710 
Q 2598 4710 2822 4662 
Q 3046 4614 3245 4525 
L 3245 4051 
Q 3245 3981 3187 4026 
z
M 915 1331 
Q 915 1094 982 883 
Q 1050 672 1181 512 
Q 1312 352 1497 256 
Q 1683 160 1914 160 
Q 2170 160 2358 265 
Q 2547 371 2668 537 
Q 2790 704 2848 918 
Q 2906 1133 2906 1350 
Q 2906 1587 2848 1798 
Q 2790 2010 2675 2166 
Q 2560 2323 2381 2416 
Q 2202 2509 1958 2509 
Q 1702 2509 1513 2416 
Q 1325 2323 1197 2160 
Q 1069 1997 1001 1782 
Q 934 1568 915 1331 
z
" transform="scale(0.015625)"/>
       </defs>
       <use xlink:href="#NanumBarunGothic-32"/>
       <use xlink:href="#NanumBarunGothic-30" x="58.299988"/>
       <use xlink:href="#NanumBarunGothic-32" x="116.599976"/>
       <use xlink:href="#NanumBarunGothic-34" x="174.899963"/>
       <use xlink:href="#NanumBarunGothic-2d" x="233.199951"/>
       <use xlink:href="#NanumBarunGothic-30" x="291.499939"/>
       <use xlink:href="#NanumBarunGothic-36" x="349.799927"/>
       <use xlink:href="#NanumBarunGothic-2d" x="408.099915"/>
       <use xlink:href="#NanumBarunGothic-30" x="466.399902"/>
       <use xlink:href="#NanumBarunGothic-31" x="524.69989"/>
      </g>
     </g>
    </g>
    <g id="text_10">
     <!-- 날짜 -->
     <g transform="translate(360.079687 413.83) scale(0.1 -0.1)">
      <defs>
       <path id="NanumBarunGothic-b0a0" d="M 973 2726 
L 1766 2726 
Q 2413 2726 2950 2800 
Q 3488 2874 3827 2944 
L 3827 2496 
Q 3642 2451 3392 2409 
Q 3142 2368 2860 2336 
Q 2579 2304 2278 2285 
Q 1978 2266 1690 2266 
L 403 2266 
L 403 4800 
L 973 4800 
L 973 2726 
z
M 5645 3334 
L 4723 3334 
L 4723 2042 
L 4173 2042 
L 4173 4992 
L 4723 4992 
L 4723 3821 
L 5645 3821 
L 5645 3334 
z
M 4851 -787 
L 1094 -787 
L 1094 730 
L 4179 730 
L 4179 1235 
L 1094 1235 
L 1094 1709 
L 4723 1709 
L 4723 262 
L 1638 262 
L 1638 -314 
L 4851 -314 
L 4851 -787 
z
" transform="scale(0.015625)"/>
       <path id="NanumBarunGothic-c9dc" d="M 1478 2797 
Q 1523 2688 1587 2563 
Q 1651 2438 1728 2316 
Q 1805 2195 1888 2083 
Q 1971 1971 2048 1894 
Q 1978 1754 1907 1651 
Q 1837 1549 1741 1427 
Q 1600 1594 1472 1802 
Q 1344 2010 1242 2234 
Q 890 1542 256 934 
L -160 1235 
Q 122 1491 368 1792 
Q 614 2093 796 2438 
Q 979 2784 1091 3177 
Q 1203 3571 1222 4006 
Q 1037 3994 857 3994 
Q 678 3994 493 3994 
L 243 3994 
L 243 4474 
L 678 4474 
Q 947 4474 1212 4474 
Q 1478 4474 1747 4486 
Q 1734 4006 1670 3590 
Q 1606 3174 1478 2797 
z
M 3149 2765 
Q 3296 2298 3561 1914 
Q 3827 1530 4166 1254 
L 3776 909 
Q 3507 1165 3286 1459 
Q 3066 1754 2912 2099 
Q 2688 1574 2387 1110 
Q 2086 646 1702 275 
L 1261 550 
Q 1587 864 1872 1238 
Q 2157 1613 2374 2048 
Q 2592 2483 2723 2976 
Q 2854 3469 2880 4006 
Q 2733 3994 2592 3994 
Q 2451 3994 2310 3994 
L 1958 3994 
L 1958 4474 
L 2451 4474 
Q 2694 4474 2931 4474 
Q 3168 4474 3411 4486 
Q 3398 3622 3149 2765 
z
M 5696 2330 
L 4819 2330 
L 4819 -851 
L 4282 -851 
L 4282 4992 
L 4819 4992 
L 4819 2816 
L 5696 2816 
L 5696 2330 
z
" transform="scale(0.015625)"/>
      </defs>
      <use xlink:href="#NanumBarunGothic-b0a0"/>
      <use xlink:href="#NanumBarunGothic-c9dc" x="89.199982"/>
     </g>
    </g>
   </g>
   <g id="matplotlib.axis_2">
    <g id="ytick_1">
     <g id="line2d_19">
      <path d="M 90 376.232727 
L 648 376.232727 
" clip-path="url(#pcb5286c8ca)" style="fill: none; stroke: #b0b0b0; stroke-width: 0.8; stroke-linecap: square"/>
     </g>
     <g id="line2d_20">
      <defs>
       <path id="mc4fda745cb" d="M 0 0 
L -3.5 0 
" style="stroke: #000000; stroke-width: 0.8"/>
      </defs>
      <g>
       <use xlink:href="#mc4fda745cb" x="90" y="376.232727" style="stroke: #000000; stroke-width: 0.8"/>
      </g>
     </g>
     <g id="text_11">
      <!-- 77000 -->
      <g transform="translate(53.851562 380.117884) scale(0.1 -0.1)">
       <use xlink:href="#NanumBarunGothic-37"/>
       <use xlink:href="#NanumBarunGothic-37" x="58.299988"/>
       <use xlink:href="#NanumBarunGothic-30" x="116.599976"/>
       <use xlink:href="#NanumBarunGothic-30" x="174.899963"/>
       <use xlink:href="#NanumBarunGothic-30" x="233.199951"/>
      </g>
     </g>
    </g>
    <g id="ytick_2">
     <g id="line2d_21">
      <path d="M 90 307.505455 
L 648 307.505455 
" clip-path="url(#pcb5286c8ca)" style="fill: none; stroke: #b0b0b0; stroke-width: 0.8; stroke-linecap: square"/>
     </g>
     <g id="line2d_22">
      <g>
       <use xlink:href="#mc4fda745cb" x="90" y="307.505455" style="stroke: #000000; stroke-width: 0.8"/>
      </g>
     </g>
     <g id="text_12">
      <!-- 78000 -->
      <g transform="translate(53.851562 311.390611) scale(0.1 -0.1)">
       <defs>
        <path id="NanumBarunGothic-38" d="M 1862 160 
Q 2080 160 2275 227 
Q 2470 294 2617 416 
Q 2765 538 2848 714 
Q 2931 890 2931 1114 
Q 2931 1331 2848 1513 
Q 2765 1696 2617 1830 
Q 2470 1965 2275 2038 
Q 2080 2112 1862 2112 
Q 1638 2112 1446 2038 
Q 1254 1965 1107 1830 
Q 960 1696 877 1513 
Q 794 1331 794 1114 
Q 794 890 877 714 
Q 960 538 1107 416 
Q 1254 294 1446 227 
Q 1638 160 1862 160 
z
M 1862 2573 
Q 2042 2573 2214 2630 
Q 2387 2688 2521 2797 
Q 2656 2906 2739 3066 
Q 2822 3226 2822 3430 
Q 2822 3629 2745 3789 
Q 2669 3949 2537 4064 
Q 2406 4179 2233 4240 
Q 2061 4301 1862 4301 
Q 1664 4301 1491 4240 
Q 1318 4179 1187 4064 
Q 1056 3949 979 3789 
Q 902 3629 902 3430 
Q 902 3226 985 3066 
Q 1069 2906 1203 2797 
Q 1338 2688 1510 2630 
Q 1683 2573 1862 2573 
z
M 1862 -288 
Q 1453 -288 1149 -189 
Q 845 -90 643 86 
Q 442 262 339 505 
Q 237 749 237 1030 
Q 237 1498 477 1843 
Q 717 2189 1235 2323 
L 1235 2336 
Q 832 2464 589 2742 
Q 346 3021 346 3424 
Q 346 3686 438 3920 
Q 531 4154 720 4326 
Q 909 4499 1193 4601 
Q 1478 4704 1862 4704 
Q 2246 4704 2531 4601 
Q 2816 4499 3005 4326 
Q 3194 4154 3286 3920 
Q 3379 3686 3379 3424 
Q 3379 3021 3136 2742 
Q 2893 2464 2490 2336 
L 2490 2323 
Q 3008 2189 3248 1843 
Q 3488 1498 3488 1030 
Q 3488 749 3385 505 
Q 3283 262 3081 86 
Q 2880 -90 2576 -189 
Q 2272 -288 1862 -288 
z
" transform="scale(0.015625)"/>
       </defs>
       <use xlink:href="#NanumBarunGothic-37"/>
       <use xlink:href="#NanumBarunGothic-38" x="58.299988"/>
       <use xlink:href="#NanumBarunGothic-30" x="116.599976"/>
       <use xlink:href="#NanumBarunGothic-30" x="174.899963"/>
       <use xlink:href="#NanumBarunGothic-30" x="233.199951"/>
      </g>
     </g>
    </g>
    <g id="ytick_3">
     <g id="line2d_23">
      <path d="M 90 238.778182 
L 648 238.778182 
" clip-path="url(#pcb5286c8ca)" style="fill: none; stroke: #b0b0b0; stroke-width: 0.8; stroke-linecap: square"/>
     </g>
     <g id="line2d_24">
      <g>
       <use xlink:href="#mc4fda745cb" x="90" y="238.778182" style="stroke: #000000; stroke-width: 0.8"/>
      </g>
     </g>
     <g id="text_13">
      <!-- 79000 -->
      <g transform="translate(53.851562 242.663338) scale(0.1 -0.1)">
       <use xlink:href="#NanumBarunGothic-37"/>
       <use xlink:href="#NanumBarunGothic-39" x="58.299988"/>
       <use xlink:href="#NanumBarunGothic-30" x="116.599976"/>
       <use xlink:href="#NanumBarunGothic-30" x="174.899963"/>
       <use xlink:href="#NanumBarunGothic-30" x="233.199951"/>
      </g>
     </g>
    </g>
    <g id="ytick_4">
     <g id="line2d_25">
      <path d="M 90 170.050909 
L 648 170.050909 
" clip-path="url(#pcb5286c8ca)" style="fill: none; stroke: #b0b0b0; stroke-width: 0.8; stroke-linecap: square"/>
     </g>
     <g id="line2d_26">
      <g>
       <use xlink:href="#mc4fda745cb" x="90" y="170.050909" style="stroke: #000000; stroke-width: 0.8"/>
      </g>
     </g>
     <g id="text_14">
      <!-- 80000 -->
      <g transform="translate(53.851562 173.936065) scale(0.1 -0.1)">
       <use xlink:href="#NanumBarunGothic-38"/>
       <use xlink:href="#NanumBarunGothic-30" x="58.299988"/>
       <use xlink:href="#NanumBarunGothic-30" x="116.599976"/>
       <use xlink:href="#NanumBarunGothic-30" x="174.899963"/>
       <use xlink:href="#NanumBarunGothic-30" x="233.199951"/>
      </g>
     </g>
    </g>
    <g id="ytick_5">
     <g id="line2d_27">
      <path d="M 90 101.323636 
L 648 101.323636 
" clip-path="url(#pcb5286c8ca)" style="fill: none; stroke: #b0b0b0; stroke-width: 0.8; stroke-linecap: square"/>
     </g>
     <g id="line2d_28">
      <g>
       <use xlink:href="#mc4fda745cb" x="90" y="101.323636" style="stroke: #000000; stroke-width: 0.8"/>
      </g>
     </g>
     <g id="text_15">
      <!-- 81000 -->
      <g transform="translate(53.851562 105.208793) scale(0.1 -0.1)">
       <use xlink:href="#NanumBarunGothic-38"/>
       <use xlink:href="#NanumBarunGothic-31" x="58.299988"/>
       <use xlink:href="#NanumBarunGothic-30" x="116.599976"/>
       <use xlink:href="#NanumBarunGothic-30" x="174.899963"/>
       <use xlink:href="#NanumBarunGothic-30" x="233.199951"/>
      </g>
     </g>
    </g>
    <g id="text_16">
     <!-- 가격 -->
     <g transform="translate(47.042187 227.080312) rotate(-90) scale(0.1 -0.1)">
      <defs>
       <path id="NanumBarunGothic-ac00" d="M 154 806 
Q 717 1088 1145 1446 
Q 1574 1805 1872 2221 
Q 2170 2637 2349 3094 
Q 2528 3552 2592 4032 
Q 2202 4019 1818 4016 
Q 1434 4013 1050 4013 
L 390 4013 
L 390 4486 
L 1395 4486 
Q 1843 4486 2291 4486 
Q 2739 4486 3194 4499 
Q 3104 3181 2464 2141 
Q 1824 1101 525 403 
L 154 806 
z
M 5696 2246 
L 4691 2246 
L 4691 -851 
L 4141 -851 
L 4141 4992 
L 4691 4992 
L 4691 2733 
L 5696 2733 
L 5696 2246 
z
" transform="scale(0.015625)"/>
       <path id="NanumBarunGothic-aca9" d="M 4448 3942 
L 4448 4992 
L 4998 4992 
L 4998 1600 
L 4448 1600 
L 4448 2304 
L 3219 2304 
L 3219 2771 
L 4454 2771 
L 4454 3482 
L 3379 3482 
L 3379 3942 
L 4448 3942 
z
M 2720 4282 
Q 2336 4269 1958 4265 
Q 1581 4262 1197 4262 
L 646 4262 
L 646 4736 
L 1574 4736 
Q 2022 4736 2470 4736 
Q 2918 4736 3373 4749 
Q 3334 4224 3136 3744 
Q 2938 3264 2592 2857 
Q 2246 2451 1753 2137 
Q 1261 1824 640 1632 
L 314 2061 
Q 1338 2368 1955 2925 
Q 2573 3482 2720 4282 
z
M 4448 -870 
L 4448 787 
L 1222 787 
L 1222 1267 
L 4998 1267 
L 4998 -870 
L 4448 -870 
z
" transform="scale(0.015625)"/>
      </defs>
      <use xlink:href="#NanumBarunGothic-ac00"/>
      <use xlink:href="#NanumBarunGothic-aca9" x="89.199982"/>
     </g>
    </g>
   </g>
   <g id="line2d_29">
    <path d="M 115.363636 321.250909 
L 132.855799 369.36 
L 202.824451 204.414545 
L 220.316614 176.923636 
L 237.808777 231.905455 
L 255.30094 183.796364 
L 307.777429 101.323636 
L 325.269592 135.687273 
L 360.253918 101.323636 
L 377.746082 101.323636 
L 430.222571 94.450909 
L 447.714734 135.687273 
L 465.206897 101.323636 
L 482.69906 128.814545 
L 500.191223 280.014545 
L 552.667712 176.923636 
L 570.159875 73.832727 
L 587.652038 66.96 
L 605.144201 94.450909 
L 622.636364 80.705455 
" clip-path="url(#pcb5286c8ca)" style="fill: none; stroke: #1f77b4; stroke-width: 1.5; stroke-linecap: square"/>
   </g>
   <g id="patch_3">
    <path d="M 90 384.48 
L 90 51.84 
" style="fill: none; stroke: #000000; stroke-width: 0.8; stroke-linejoin: miter; stroke-linecap: square"/>
   </g>
   <g id="patch_4">
    <path d="M 648 384.48 
L 648 51.84 
" style="fill: none; stroke: #000000; stroke-width: 0.8; stroke-linejoin: miter; stroke-linecap: square"/>
   </g>
   <g id="patch_5">
    <path d="M 90 384.48 
L 648 384.48 
" style="fill: none; stroke: #000000; stroke-width: 0.8; stroke-linejoin: miter; stroke-linecap: square"/>
   </g>
   <g id="patch_6">
    <path d="M 90 51.84 
L 648 51.84 
" style="fill: none; stroke: #000000; stroke-width: 0.8; stroke-linejoin: miter; stroke-linecap: square"/>
   </g>
   <g id="text_17">
    <!-- LG의 주가 -->
    <g transform="translate(344.397187 45.84) scale(0.12 -0.12)">
     <defs>
      <path id="NanumBarunGothic-4c" d="M 3315 256 
L 3315 -230 
L 544 -230 
L 544 4614 
L 1107 4614 
L 1107 256 
L 3315 256 
z
" transform="scale(0.015625)"/>
      <path id="NanumBarunGothic-47" d="M 4045 3648 
Q 3802 3917 3456 4061 
Q 3110 4205 2707 4205 
Q 2317 4205 1981 4070 
Q 1645 3936 1395 3683 
Q 1146 3430 1005 3059 
Q 864 2688 864 2221 
Q 864 1741 979 1363 
Q 1094 986 1328 720 
Q 1562 454 1910 313 
Q 2259 173 2726 173 
Q 3040 173 3241 253 
Q 3443 333 3584 474 
L 3584 1760 
L 2470 1760 
L 2470 2240 
L 4160 2240 
L 4160 134 
Q 3763 -83 3382 -185 
Q 3002 -288 2630 -288 
Q 2054 -288 1612 -105 
Q 1171 77 873 403 
Q 576 730 425 1190 
Q 275 1651 275 2208 
Q 275 2784 454 3238 
Q 634 3693 950 4013 
Q 1267 4333 1705 4502 
Q 2144 4672 2662 4672 
Q 3104 4672 3462 4579 
Q 3821 4486 4128 4262 
L 4128 3674 
Q 4128 3629 4102 3622 
Q 4077 3616 4045 3648 
z
" transform="scale(0.015625)"/>
      <path id="NanumBarunGothic-c758" d="M 3622 3162 
Q 3622 2848 3516 2576 
Q 3411 2304 3216 2105 
Q 3021 1907 2739 1795 
Q 2458 1683 2112 1683 
Q 1766 1683 1484 1795 
Q 1203 1907 1008 2105 
Q 813 2304 707 2576 
Q 602 2848 602 3162 
Q 602 3475 707 3747 
Q 813 4019 1008 4217 
Q 1203 4416 1484 4528 
Q 1766 4640 2112 4640 
Q 2458 4640 2739 4528 
Q 3021 4416 3216 4217 
Q 3411 4019 3516 3747 
Q 3622 3475 3622 3162 
z
M 3053 3162 
Q 3053 3622 2800 3891 
Q 2547 4160 2112 4160 
Q 1677 4160 1424 3891 
Q 1171 3622 1171 3162 
Q 1171 2701 1424 2432 
Q 1677 2163 2112 2163 
Q 2547 2163 2800 2432 
Q 3053 2701 3053 3162 
z
M 5152 -851 
L 4621 -851 
L 4621 4992 
L 5152 4992 
L 5152 -851 
z
M 218 858 
L 1389 858 
Q 1709 858 2093 867 
Q 2477 877 2870 896 
Q 3264 915 3638 947 
Q 4013 979 4320 1018 
L 4320 557 
Q 4013 512 3645 480 
Q 3277 448 2889 425 
Q 2502 403 2118 390 
Q 1734 378 1395 378 
L 218 378 
L 218 858 
z
" transform="scale(0.015625)"/>
      <path id="NanumBarunGothic-20" transform="scale(0.015625)"/>
      <path id="NanumBarunGothic-c8fc" d="M 134 1747 
L 5574 1747 
L 5574 1267 
L 3181 1267 
L 3181 -819 
L 2618 -819 
L 2618 1267 
L 134 1267 
L 134 1747 
z
M 4486 4614 
Q 4326 4256 4054 3952 
Q 3782 3648 3411 3379 
Q 3814 3181 4281 3021 
Q 4749 2861 5267 2752 
L 4992 2285 
Q 4429 2426 3920 2624 
Q 3411 2822 2950 3091 
Q 2477 2822 1920 2614 
Q 1363 2406 742 2253 
L 474 2714 
Q 1082 2842 1594 3024 
Q 2106 3206 2509 3417 
Q 2912 3629 3206 3856 
Q 3501 4083 3667 4314 
Q 3302 4294 2950 4291 
Q 2598 4288 2240 4288 
L 1037 4288 
L 1037 4762 
L 2688 4762 
Q 3104 4762 3523 4762 
Q 3942 4762 4397 4774 
Q 4467 4781 4492 4723 
Q 4518 4666 4486 4614 
z
" transform="scale(0.015625)"/>
     </defs>
     <use xlink:href="#NanumBarunGothic-4c"/>
     <use xlink:href="#NanumBarunGothic-47" x="49.024994"/>
     <use xlink:href="#NanumBarunGothic-c758" x="120.024979"/>
     <use xlink:href="#NanumBarunGothic-20" x="209.22496"/>
     <use xlink:href="#NanumBarunGothic-c8fc" x="231.624954"/>
     <use xlink:href="#NanumBarunGothic-ac00" x="320.824936"/>
    </g>
   </g>
   <g id="legend_1">
    <g id="patch_7">
     <path d="M 97 75.419687 
L 146.840625 75.419687 
Q 148.840625 75.419687 148.840625 73.419687 
L 148.840625 58.84 
Q 148.840625 56.84 146.840625 56.84 
L 97 56.84 
Q 95 56.84 95 58.84 
L 95 73.419687 
Q 95 75.419687 97 75.419687 
z
" style="fill: #ffffff; opacity: 0.8; stroke: #cccccc; stroke-linejoin: miter"/>
    </g>
    <g id="line2d_30">
     <path d="M 99 65.110312 
L 109 65.110312 
L 119 65.110312 
" style="fill: none; stroke: #1f77b4; stroke-width: 1.5; stroke-linecap: square"/>
    </g>
    <g id="text_18">
     <!-- 종가 -->
     <g transform="translate(127 68.610312) scale(0.1 -0.1)">
      <defs>
       <path id="NanumBarunGothic-c885" d="M 3546 3686 
Q 3930 3482 4378 3331 
Q 4826 3181 5280 3091 
L 4998 2656 
Q 4774 2707 4524 2787 
Q 4275 2867 4025 2966 
Q 3776 3066 3542 3184 
Q 3309 3302 3110 3430 
Q 2586 3149 1987 2953 
Q 1389 2758 787 2662 
L 525 3085 
Q 1062 3162 1536 3296 
Q 2010 3430 2406 3606 
Q 2803 3782 3120 3980 
Q 3437 4179 3648 4384 
Q 3309 4371 2979 4368 
Q 2650 4365 2304 4365 
L 973 4365 
L 973 4819 
L 2784 4819 
Q 3187 4819 3593 4819 
Q 4000 4819 4442 4832 
Q 4518 4838 4544 4784 
Q 4570 4730 4538 4672 
Q 4378 4397 4125 4150 
Q 3872 3904 3546 3686 
z
M 3200 2893 
L 3200 2093 
L 5638 2093 
L 5638 1626 
L 70 1626 
L 70 2093 
L 2630 2093 
L 2630 2893 
L 3200 2893 
z
M 4870 166 
Q 4870 -58 4745 -253 
Q 4621 -448 4371 -592 
Q 4122 -736 3750 -819 
Q 3379 -902 2893 -902 
Q 2400 -902 2029 -819 
Q 1658 -736 1408 -592 
Q 1158 -448 1030 -253 
Q 902 -58 902 166 
Q 902 390 1030 582 
Q 1158 774 1408 912 
Q 1658 1050 2029 1126 
Q 2400 1203 2893 1203 
Q 3379 1203 3750 1126 
Q 4122 1050 4371 912 
Q 4621 774 4745 582 
Q 4870 390 4870 166 
z
M 4275 166 
Q 4275 275 4208 384 
Q 4141 493 3977 579 
Q 3814 666 3548 720 
Q 3283 774 2893 774 
Q 2496 774 2230 720 
Q 1965 666 1801 579 
Q 1638 493 1571 384 
Q 1504 275 1504 166 
Q 1504 58 1571 -54 
Q 1638 -166 1801 -252 
Q 1965 -339 2230 -393 
Q 2496 -448 2893 -448 
Q 3283 -448 3548 -393 
Q 3814 -339 3977 -252 
Q 4141 -166 4208 -54 
Q 4275 58 4275 166 
z
" transform="scale(0.015625)"/>
      </defs>
      <use xlink:href="#NanumBarunGothic-c885"/>
      <use xlink:href="#NanumBarunGothic-ac00" x="89.199982"/>
     </g>
    </g>
   </g>
  </g>
 </g>
 <defs>
  <clipPath id="pcb5286c8ca">
   <rect x="90" y="51.84" width="558" height="332.64"/>
  </clipPath>
 </defs>
</svg>
