<?xml version="1.0" encoding="utf-8" standalone="no"?>
<!DOCTYPE svg PUBLIC "-//W3C//DTD SVG 1.1//EN"
  "http://www.w3.org/Graphics/SVG/1.1/DTD/svg11.dtd">
<svg xmlns:xlink="http://www.w3.org/1999/xlink" width="781.2pt" height="406.2375pt" viewBox="0 0 781.2 406.2375" xmlns="http://www.w3.org/2000/svg" version="1.1">
 <metadata>
  <rdf:RDF xmlns:dc="http://purl.org/dc/elements/1.1/" xmlns:cc="http://creativecommons.org/ns#" xmlns:rdf="http://www.w3.org/1999/02/22-rdf-syntax-ns#">
   <cc:Work>
    <dc:type rdf:resource="http://purl.org/dc/dcmitype/StillImage"/>
    <dc:date>2024-07-29T22:21:55.232754</dc:date>
    <dc:format>image/svg+xml</dc:format>
    <dc:creator>
     <cc:Agent>
      <dc:title>Matplotlib v3.9.0, https://matplotlib.org/</dc:title>
     </cc:Agent>
    </dc:creator>
   </cc:Work>
  </rdf:RDF>
 </metadata>
 <defs>
  <style type="text/css">*{stroke-linejoin: round; stroke-linecap: butt}</style>
 </defs>
 <g id="figure_1">
  <g id="patch_1">
   <path d="M 0 406.2375 
L 781.2 406.2375 
L 781.2 0 
L 0 0 
z
" style="fill: #ffffff"/>
  </g>
  <g id="axes_1">
   <g id="PathCollection_1">
    <defs>
     <path id="mbece6158e6" d="M 0 3 
C 0.795609 3 1.55874 2.683901 2.12132 2.12132 
C 2.683901 1.55874 3 0.795609 3 0 
C 3 -0.795609 2.683901 -1.55874 2.12132 -2.12132 
C 1.55874 -2.683901 0.795609 -3 0 -3 
C -0.795609 -3 -1.55874 -2.683901 -2.12132 -2.12132 
C -2.683901 -1.55874 -3 -0.795609 -3 0 
C -3 0.795609 -2.683901 1.55874 -2.12132 2.12132 
C -1.55874 2.683901 -0.795609 3 0 3 
z
" style="stroke: #ff0000"/>
    </defs>
    <g clip-path="url(#p1ac46a2b6a)">
     <use xlink:href="#mbece6158e6" x="739.853798" y="35.7975" style="fill: #ff0000; stroke: #ff0000"/>
     <use xlink:href="#mbece6158e6" x="745.690909" y="37.875239" style="fill: #ff0000; stroke: #ff0000"/>
    </g>
   </g>
   <g id="line2d_1">
    <path d="M 35.509091 388.5975 
L 37.454795 382.225769 
L 45.237609 382.156511 
L 47.183313 382.087253 
L 49.129016 381.117641 
L 51.07472 379.870998 
L 56.911831 382.225769 
L 58.857534 381.117641 
L 60.803238 382.225769 
L 62.748941 381.117641 
L 64.694645 377.239196 
L 70.531756 374.607394 
L 72.47746 375.161458 
L 74.423163 374.05333 
L 76.368867 375.577005 
L 78.31457 375.992553 
L 84.151681 375.577005 
L 86.097385 373.083719 
L 88.043088 374.607394 
L 89.988792 371.005981 
L 91.934496 364.634249 
L 97.771606 365.188313 
L 99.71731 361.586899 
L 101.663014 362.140963 
L 103.608717 363.110574 
L 105.554421 361.032836 
L 111.391532 360.063224 
L 113.337235 354.384072 
L 115.282939 358.678065 
L 117.228643 358.816581 
L 119.174346 360.89432 
L 125.011457 359.647677 
L 126.957161 361.171352 
L 128.902864 361.725415 
L 130.848568 357.569938 
L 132.794271 357.431422 
L 138.631382 355.353684 
L 140.577086 343.164284 
L 142.52279 358.401034 
L 144.468493 357.015875 
L 146.414197 353.830009 
L 152.251308 351.890786 
L 154.197011 352.721882 
L 156.142715 351.198207 
L 158.088418 353.414461 
L 161.979826 353.876181 
L 165.871233 354.245557 
L 167.816936 349.258984 
L 169.76264 351.890786 
L 171.708344 355.215168 
L 173.654047 352.306334 
L 179.491158 350.782659 
L 183.382565 353.830009 
L 185.328269 357.292906 
L 187.273973 358.124002 
L 193.111083 358.678065 
L 195.056787 355.215168 
L 197.002491 359.924708 
L 198.948194 357.708454 
L 200.893898 361.448383 
L 206.731009 359.509161 
L 208.676712 358.401034 
L 210.622416 358.124002 
L 212.56812 357.292906 
L 214.513823 367.404567 
L 220.350934 365.326829 
L 222.296638 365.188313 
L 224.242341 365.60386 
L 226.188045 368.097147 
L 228.133748 367.958631 
L 233.970859 362.002447 
L 235.916563 361.309867 
L 237.862267 361.863931 
L 239.80797 361.863931 
L 241.753674 357.569938 
L 247.590785 355.215168 
L 249.536488 351.75227 
L 251.482192 356.184779 
L 253.427895 358.955097 
L 255.373599 358.124002 
L 261.21071 361.586899 
L 263.156413 364.218701 
L 265.102117 362.556511 
L 278.722042 364.634249 
L 280.667746 363.387606 
L 282.61345 363.24909 
L 290.396264 361.586899 
L 292.341968 356.184779 
L 294.287671 356.877359 
L 296.233375 355.630716 
L 302.070486 353.691493 
L 304.016189 349.536016 
L 305.961893 350.367111 
L 307.907597 356.461811 
L 309.8533 353.830009 
L 315.690411 359.924708 
L 317.636115 352.998913 
L 319.581818 351.613754 
L 321.527522 352.306334 
L 323.473225 351.75227 
L 329.310336 352.721882 
L 331.25604 350.921175 
L 333.201743 345.796087 
L 335.147447 347.319761 
L 337.093151 349.258984 
L 342.930262 348.150857 
L 344.875965 343.718348 
L 346.821669 340.809514 
L 348.767372 341.086546 
L 350.713076 339.147323 
L 356.550187 337.90068 
L 358.49589 339.978419 
L 360.441594 338.177712 
L 362.387298 334.576299 
L 364.333001 332.914108 
L 370.170112 336.515521 
L 372.115816 336.654037 
L 374.061519 337.623648 
L 376.007223 338.316228 
L 377.952927 334.576299 
L 383.790037 335.684426 
L 385.735741 336.931069 
L 387.681445 335.407394 
L 389.627148 338.316228 
L 391.572852 335.268878 
L 399.355666 339.701387 
L 401.30137 342.748737 
L 403.247073 343.856864 
L 405.192777 343.99538 
L 411.029888 340.532482 
L 412.975592 343.856864 
L 414.921295 341.64061 
L 416.866999 340.94803 
L 418.812702 341.225062 
L 424.649813 337.762164 
L 426.595517 338.316228 
L 428.54122 337.762164 
L 430.486924 337.762164 
L 432.432628 340.532482 
L 440.215442 343.99538 
L 442.161146 343.441316 
L 444.106849 340.94803 
L 453.835367 343.856864 
L 455.781071 335.961458 
L 457.726775 334.160751 
L 459.672478 329.728242 
L 465.509589 326.265345 
L 467.455293 328.620115 
L 469.400996 329.312694 
L 471.3467 330.697853 
L 473.292403 326.126829 
L 479.129514 322.386899 
L 481.075218 325.988313 
L 483.020922 325.988313 
L 484.966625 319.893613 
L 486.912329 318.092906 
L 492.74944 315.461104 
L 494.695143 316.2922 
L 496.640847 314.630009 
L 498.58655 310.1975 
L 500.532254 310.1975 
L 506.369365 314.630009 
L 508.315068 316.2922 
L 510.260772 312.55227 
L 512.206476 317.400327 
L 518.043587 315.645792 
L 519.98929 315.045557 
L 521.934994 306.873118 
L 523.880697 311.444143 
L 525.826401 306.042023 
L 535.554919 305.764991 
L 539.446326 293.021528 
L 541.39203 294.268171 
L 547.229141 283.602447 
L 549.174844 268.64273 
L 551.120548 274.183366 
L 553.066252 277.0922 
L 555.011955 269.058277 
L 560.849066 261.855451 
L 562.79477 276.122588 
L 564.740473 284.156511 
L 566.686177 282.49432 
L 574.468991 272.521175 
L 576.414695 275.014461 
L 578.360399 266.426475 
L 580.306102 276.538136 
L 582.251806 275.568525 
L 588.088917 271.967111 
L 590.03462 269.889373 
L 591.980324 251.189726 
L 593.926027 238.307747 
L 595.871731 249.804567 
L 601.708842 240.662518 
L 603.654545 248.280892 
L 605.600249 247.449797 
L 607.545953 229.581246 
L 609.491656 224.179125 
L 615.328767 220.023648 
L 617.274471 199.938843 
L 619.220174 201.185486 
L 621.165878 207.280186 
L 628.948692 203.40174 
L 630.894396 202.709161 
L 632.8401 198.138136 
L 634.785803 179.577005 
L 636.731507 185.533189 
L 642.568618 176.39114 
L 648.405729 133.45121 
L 650.351432 129.295733 
L 656.188543 120.2922 
L 658.134247 168.772765 
L 660.07995 159.769231 
L 662.025654 123.755097 
L 663.971357 116.829302 
L 669.808468 139.684426 
L 671.754172 122.369938 
L 673.699875 101.592553 
L 675.645579 119.59962 
L 677.591283 108.518348 
L 683.428394 116.829302 
L 685.374097 112.673825 
L 689.265504 123.062518 
L 691.211208 136.221528 
L 698.994022 105.74803 
L 700.939726 96.051917 
L 702.88543 82.200327 
L 704.831133 91.89644 
L 710.668244 98.822235 
L 712.613948 99.514814 
L 716.505355 100.207394 
L 718.451059 108.518348 
L 724.288169 94.666758 
L 726.233873 100.899973 
L 728.179577 105.055451 
L 730.12528 100.899973 
L 732.070984 62.808101 
L 737.908095 48.263931 
L 739.853798 35.7975 
L 743.745205 53.804567 
L 745.690909 37.875239 
L 745.690909 37.875239 
" clip-path="url(#p1ac46a2b6a)" style="fill: none; stroke: #1f77b4; stroke-width: 3.5; stroke-linecap: square"/>
   </g>
   <g id="text_1">
    <!-- Stock Price with Anomalies for HD현대일렉트릭 -->
    <g transform="translate(225.6075 12.1575) scale(0.16 -0.16)">
     <defs>
      <path id="DejaVuSans-53" d="M 3425 4513 
L 3425 3897 
Q 3066 4069 2747 4153 
Q 2428 4238 2131 4238 
Q 1616 4238 1336 4038 
Q 1056 3838 1056 3469 
Q 1056 3159 1242 3001 
Q 1428 2844 1947 2747 
L 2328 2669 
Q 3034 2534 3370 2195 
Q 3706 1856 3706 1288 
Q 3706 609 3251 259 
Q 2797 -91 1919 -91 
Q 1588 -91 1214 -16 
Q 841 59 441 206 
L 441 856 
Q 825 641 1194 531 
Q 1563 422 1919 422 
Q 2459 422 2753 634 
Q 3047 847 3047 1241 
Q 3047 1584 2836 1778 
Q 2625 1972 2144 2069 
L 1759 2144 
Q 1053 2284 737 2584 
Q 422 2884 422 3419 
Q 422 4038 858 4394 
Q 1294 4750 2059 4750 
Q 2388 4750 2728 4690 
Q 3069 4631 3425 4513 
z
" transform="scale(0.015625)"/>
      <path id="DejaVuSans-74" d="M 1172 4494 
L 1172 3500 
L 2356 3500 
L 2356 3053 
L 1172 3053 
L 1172 1153 
Q 1172 725 1289 603 
Q 1406 481 1766 481 
L 2356 481 
L 2356 0 
L 1766 0 
Q 1100 0 847 248 
Q 594 497 594 1153 
L 594 3053 
L 172 3053 
L 172 3500 
L 594 3500 
L 594 4494 
L 1172 4494 
z
" transform="scale(0.015625)"/>
      <path id="DejaVuSans-6f" d="M 1959 3097 
Q 1497 3097 1228 2736 
Q 959 2375 959 1747 
Q 959 1119 1226 758 
Q 1494 397 1959 397 
Q 2419 397 2687 759 
Q 2956 1122 2956 1747 
Q 2956 2369 2687 2733 
Q 2419 3097 1959 3097 
z
M 1959 3584 
Q 2709 3584 3137 3096 
Q 3566 2609 3566 1747 
Q 3566 888 3137 398 
Q 2709 -91 1959 -91 
Q 1206 -91 779 398 
Q 353 888 353 1747 
Q 353 2609 779 3096 
Q 1206 3584 1959 3584 
z
" transform="scale(0.015625)"/>
      <path id="DejaVuSans-63" d="M 3122 3366 
L 3122 2828 
Q 2878 2963 2633 3030 
Q 2388 3097 2138 3097 
Q 1578 3097 1268 2742 
Q 959 2388 959 1747 
Q 959 1106 1268 751 
Q 1578 397 2138 397 
Q 2388 397 2633 464 
Q 2878 531 3122 666 
L 3122 134 
Q 2881 22 2623 -34 
Q 2366 -91 2075 -91 
Q 1284 -91 818 406 
Q 353 903 353 1747 
Q 353 2603 823 3093 
Q 1294 3584 2113 3584 
Q 2378 3584 2631 3529 
Q 2884 3475 3122 3366 
z
" transform="scale(0.015625)"/>
      <path id="DejaVuSans-6b" d="M 581 4863 
L 1159 4863 
L 1159 1991 
L 2875 3500 
L 3609 3500 
L 1753 1863 
L 3688 0 
L 2938 0 
L 1159 1709 
L 1159 0 
L 581 0 
L 581 4863 
z
" transform="scale(0.015625)"/>
      <path id="DejaVuSans-20" transform="scale(0.015625)"/>
      <path id="DejaVuSans-50" d="M 1259 4147 
L 1259 2394 
L 2053 2394 
Q 2494 2394 2734 2622 
Q 2975 2850 2975 3272 
Q 2975 3691 2734 3919 
Q 2494 4147 2053 4147 
L 1259 4147 
z
M 628 4666 
L 2053 4666 
Q 2838 4666 3239 4311 
Q 3641 3956 3641 3272 
Q 3641 2581 3239 2228 
Q 2838 1875 2053 1875 
L 1259 1875 
L 1259 0 
L 628 0 
L 628 4666 
z
" transform="scale(0.015625)"/>
      <path id="DejaVuSans-72" d="M 2631 2963 
Q 2534 3019 2420 3045 
Q 2306 3072 2169 3072 
Q 1681 3072 1420 2755 
Q 1159 2438 1159 1844 
L 1159 0 
L 581 0 
L 581 3500 
L 1159 3500 
L 1159 2956 
Q 1341 3275 1631 3429 
Q 1922 3584 2338 3584 
Q 2397 3584 2469 3576 
Q 2541 3569 2628 3553 
L 2631 2963 
z
" transform="scale(0.015625)"/>
      <path id="DejaVuSans-69" d="M 603 3500 
L 1178 3500 
L 1178 0 
L 603 0 
L 603 3500 
z
M 603 4863 
L 1178 4863 
L 1178 4134 
L 603 4134 
L 603 4863 
z
" transform="scale(0.015625)"/>
      <path id="DejaVuSans-65" d="M 3597 1894 
L 3597 1613 
L 953 1613 
Q 991 1019 1311 708 
Q 1631 397 2203 397 
Q 2534 397 2845 478 
Q 3156 559 3463 722 
L 3463 178 
Q 3153 47 2828 -22 
Q 2503 -91 2169 -91 
Q 1331 -91 842 396 
Q 353 884 353 1716 
Q 353 2575 817 3079 
Q 1281 3584 2069 3584 
Q 2775 3584 3186 3129 
Q 3597 2675 3597 1894 
z
M 3022 2063 
Q 3016 2534 2758 2815 
Q 2500 3097 2075 3097 
Q 1594 3097 1305 2825 
Q 1016 2553 972 2059 
L 3022 2063 
z
" transform="scale(0.015625)"/>
      <path id="DejaVuSans-77" d="M 269 3500 
L 844 3500 
L 1563 769 
L 2278 3500 
L 2956 3500 
L 3675 769 
L 4391 3500 
L 4966 3500 
L 4050 0 
L 3372 0 
L 2619 2869 
L 1863 0 
L 1184 0 
L 269 3500 
z
" transform="scale(0.015625)"/>
      <path id="DejaVuSans-68" d="M 3513 2113 
L 3513 0 
L 2938 0 
L 2938 2094 
Q 2938 2591 2744 2837 
Q 2550 3084 2163 3084 
Q 1697 3084 1428 2787 
Q 1159 2491 1159 1978 
L 1159 0 
L 581 0 
L 581 4863 
L 1159 4863 
L 1159 2956 
Q 1366 3272 1645 3428 
Q 1925 3584 2291 3584 
Q 2894 3584 3203 3211 
Q 3513 2838 3513 2113 
z
" transform="scale(0.015625)"/>
      <path id="DejaVuSans-41" d="M 2188 4044 
L 1331 1722 
L 3047 1722 
L 2188 4044 
z
M 1831 4666 
L 2547 4666 
L 4325 0 
L 3669 0 
L 3244 1197 
L 1141 1197 
L 716 0 
L 50 0 
L 1831 4666 
z
" transform="scale(0.015625)"/>
      <path id="DejaVuSans-6e" d="M 3513 2113 
L 3513 0 
L 2938 0 
L 2938 2094 
Q 2938 2591 2744 2837 
Q 2550 3084 2163 3084 
Q 1697 3084 1428 2787 
Q 1159 2491 1159 1978 
L 1159 0 
L 581 0 
L 581 3500 
L 1159 3500 
L 1159 2956 
Q 1366 3272 1645 3428 
Q 1925 3584 2291 3584 
Q 2894 3584 3203 3211 
Q 3513 2838 3513 2113 
z
" transform="scale(0.015625)"/>
      <path id="DejaVuSans-6d" d="M 3328 2828 
Q 3544 3216 3844 3400 
Q 4144 3584 4550 3584 
Q 5097 3584 5394 3201 
Q 5691 2819 5691 2113 
L 5691 0 
L 5113 0 
L 5113 2094 
Q 5113 2597 4934 2840 
Q 4756 3084 4391 3084 
Q 3944 3084 3684 2787 
Q 3425 2491 3425 1978 
L 3425 0 
L 2847 0 
L 2847 2094 
Q 2847 2600 2669 2842 
Q 2491 3084 2119 3084 
Q 1678 3084 1418 2786 
Q 1159 2488 1159 1978 
L 1159 0 
L 581 0 
L 581 3500 
L 1159 3500 
L 1159 2956 
Q 1356 3278 1631 3431 
Q 1906 3584 2284 3584 
Q 2666 3584 2933 3390 
Q 3200 3197 3328 2828 
z
" transform="scale(0.015625)"/>
      <path id="DejaVuSans-61" d="M 2194 1759 
Q 1497 1759 1228 1600 
Q 959 1441 959 1056 
Q 959 750 1161 570 
Q 1363 391 1709 391 
Q 2188 391 2477 730 
Q 2766 1069 2766 1631 
L 2766 1759 
L 2194 1759 
z
M 3341 1997 
L 3341 0 
L 2766 0 
L 2766 531 
Q 2569 213 2275 61 
Q 1981 -91 1556 -91 
Q 1019 -91 701 211 
Q 384 513 384 1019 
Q 384 1609 779 1909 
Q 1175 2209 1959 2209 
L 2766 2209 
L 2766 2266 
Q 2766 2663 2505 2880 
Q 2244 3097 1772 3097 
Q 1472 3097 1187 3025 
Q 903 2953 641 2809 
L 641 3341 
Q 956 3463 1253 3523 
Q 1550 3584 1831 3584 
Q 2591 3584 2966 3190 
Q 3341 2797 3341 1997 
z
" transform="scale(0.015625)"/>
      <path id="DejaVuSans-6c" d="M 603 4863 
L 1178 4863 
L 1178 0 
L 603 0 
L 603 4863 
z
" transform="scale(0.015625)"/>
      <path id="DejaVuSans-73" d="M 2834 3397 
L 2834 2853 
Q 2591 2978 2328 3040 
Q 2066 3103 1784 3103 
Q 1356 3103 1142 2972 
Q 928 2841 928 2578 
Q 928 2378 1081 2264 
Q 1234 2150 1697 2047 
L 1894 2003 
Q 2506 1872 2764 1633 
Q 3022 1394 3022 966 
Q 3022 478 2636 193 
Q 2250 -91 1575 -91 
Q 1294 -91 989 -36 
Q 684 19 347 128 
L 347 722 
Q 666 556 975 473 
Q 1284 391 1588 391 
Q 1994 391 2212 530 
Q 2431 669 2431 922 
Q 2431 1156 2273 1281 
Q 2116 1406 1581 1522 
L 1381 1569 
Q 847 1681 609 1914 
Q 372 2147 372 2553 
Q 372 3047 722 3315 
Q 1072 3584 1716 3584 
Q 2034 3584 2315 3537 
Q 2597 3491 2834 3397 
z
" transform="scale(0.015625)"/>
      <path id="DejaVuSans-66" d="M 2375 4863 
L 2375 4384 
L 1825 4384 
Q 1516 4384 1395 4259 
Q 1275 4134 1275 3809 
L 1275 3500 
L 2222 3500 
L 2222 3053 
L 1275 3053 
L 1275 0 
L 697 0 
L 697 3053 
L 147 3053 
L 147 3500 
L 697 3500 
L 697 3744 
Q 697 4328 969 4595 
Q 1241 4863 1831 4863 
L 2375 4863 
z
" transform="scale(0.015625)"/>
      <path id="DejaVuSans-48" d="M 628 4666 
L 1259 4666 
L 1259 2753 
L 3553 2753 
L 3553 4666 
L 4184 4666 
L 4184 0 
L 3553 0 
L 3553 2222 
L 1259 2222 
L 1259 0 
L 628 0 
L 628 4666 
z
" transform="scale(0.015625)"/>
      <path id="DejaVuSans-44" d="M 1259 4147 
L 1259 519 
L 2022 519 
Q 2988 519 3436 956 
Q 3884 1394 3884 2338 
Q 3884 3275 3436 3711 
Q 2988 4147 2022 4147 
L 1259 4147 
z
M 628 4666 
L 1925 4666 
Q 3281 4666 3915 4102 
Q 4550 3538 4550 2338 
Q 4550 1131 3912 565 
Q 3275 0 1925 0 
L 628 0 
L 628 4666 
z
" transform="scale(0.015625)"/>
      <path id="DejaVuSans-d604" d="M 319 -1131 
L 319 4513 
L 3519 4513 
L 3519 -1131 
L 319 -1131 
z
M 678 -775 
L 3163 -775 
L 3163 4153 
L 678 4153 
L 678 -775 
z
" transform="scale(0.015625)"/>
      <path id="DejaVuSans-b300" d="M 319 -1131 
L 319 4513 
L 3519 4513 
L 3519 -1131 
L 319 -1131 
z
M 678 -775 
L 3163 -775 
L 3163 4153 
L 678 4153 
L 678 -775 
z
" transform="scale(0.015625)"/>
      <path id="DejaVuSans-c77c" d="M 319 -1131 
L 319 4513 
L 3519 4513 
L 3519 -1131 
L 319 -1131 
z
M 678 -775 
L 3163 -775 
L 3163 4153 
L 678 4153 
L 678 -775 
z
" transform="scale(0.015625)"/>
      <path id="DejaVuSans-b809" d="M 319 -1131 
L 319 4513 
L 3519 4513 
L 3519 -1131 
L 319 -1131 
z
M 678 -775 
L 3163 -775 
L 3163 4153 
L 678 4153 
L 678 -775 
z
" transform="scale(0.015625)"/>
      <path id="DejaVuSans-d2b8" d="M 319 -1131 
L 319 4513 
L 3519 4513 
L 3519 -1131 
L 319 -1131 
z
M 678 -775 
L 3163 -775 
L 3163 4153 
L 678 4153 
L 678 -775 
z
" transform="scale(0.015625)"/>
      <path id="DejaVuSans-b9ad" d="M 319 -1131 
L 319 4513 
L 3519 4513 
L 3519 -1131 
L 319 -1131 
z
M 678 -775 
L 3163 -775 
L 3163 4153 
L 678 4153 
L 678 -775 
z
" transform="scale(0.015625)"/>
     </defs>
     <use xlink:href="#DejaVuSans-53"/>
     <use xlink:href="#DejaVuSans-74" x="63.476562"/>
     <use xlink:href="#DejaVuSans-6f" x="102.685547"/>
     <use xlink:href="#DejaVuSans-63" x="163.867188"/>
     <use xlink:href="#DejaVuSans-6b" x="218.847656"/>
     <use xlink:href="#DejaVuSans-20" x="276.757812"/>
     <use xlink:href="#DejaVuSans-50" x="308.544922"/>
     <use xlink:href="#DejaVuSans-72" x="367.097656"/>
     <use xlink:href="#DejaVuSans-69" x="408.210938"/>
     <use xlink:href="#DejaVuSans-63" x="435.994141"/>
     <use xlink:href="#DejaVuSans-65" x="490.974609"/>
     <use xlink:href="#DejaVuSans-20" x="552.498047"/>
     <use xlink:href="#DejaVuSans-77" x="584.285156"/>
     <use xlink:href="#DejaVuSans-69" x="666.072266"/>
     <use xlink:href="#DejaVuSans-74" x="693.855469"/>
     <use xlink:href="#DejaVuSans-68" x="733.064453"/>
     <use xlink:href="#DejaVuSans-20" x="796.443359"/>
     <use xlink:href="#DejaVuSans-41" x="828.230469"/>
     <use xlink:href="#DejaVuSans-6e" x="896.638672"/>
     <use xlink:href="#DejaVuSans-6f" x="960.017578"/>
     <use xlink:href="#DejaVuSans-6d" x="1021.199219"/>
     <use xlink:href="#DejaVuSans-61" x="1118.611328"/>
     <use xlink:href="#DejaVuSans-6c" x="1179.890625"/>
     <use xlink:href="#DejaVuSans-69" x="1207.673828"/>
     <use xlink:href="#DejaVuSans-65" x="1235.457031"/>
     <use xlink:href="#DejaVuSans-73" x="1296.980469"/>
     <use xlink:href="#DejaVuSans-20" x="1349.080078"/>
     <use xlink:href="#DejaVuSans-66" x="1380.867188"/>
     <use xlink:href="#DejaVuSans-6f" x="1416.072266"/>
     <use xlink:href="#DejaVuSans-72" x="1477.253906"/>
     <use xlink:href="#DejaVuSans-20" x="1518.367188"/>
     <use xlink:href="#DejaVuSans-48" x="1550.154297"/>
     <use xlink:href="#DejaVuSans-44" x="1625.349609"/>
     <use xlink:href="#DejaVuSans-d604" x="1702.351562"/>
     <use xlink:href="#DejaVuSans-b300" x="1762.361328"/>
     <use xlink:href="#DejaVuSans-c77c" x="1822.371094"/>
     <use xlink:href="#DejaVuSans-b809" x="1882.380859"/>
     <use xlink:href="#DejaVuSans-d2b8" x="1942.390625"/>
     <use xlink:href="#DejaVuSans-b9ad" x="2002.400391"/>
    </g>
   </g>
   <g id="legend_1">
    <g id="patch_2">
     <path d="M 7 55.51375 
L 93.815625 55.51375 
Q 95.815625 55.51375 95.815625 53.51375 
L 95.815625 25.1575 
Q 95.815625 23.1575 93.815625 23.1575 
L 7 23.1575 
Q 5 23.1575 5 25.1575 
L 5 53.51375 
Q 5 55.51375 7 55.51375 
z
" style="fill: #ffffff; opacity: 0.8; stroke: #cccccc; stroke-linejoin: miter"/>
    </g>
    <g id="line2d_2">
     <path d="M 9 31.255938 
L 19 31.255938 
L 29 31.255938 
" style="fill: none; stroke: #1f77b4; stroke-width: 1.5; stroke-linecap: square"/>
    </g>
    <g id="text_2">
     <!-- Close Price -->
     <g transform="translate(37 34.755938) scale(0.1 -0.1)">
      <defs>
       <path id="DejaVuSans-43" d="M 4122 4306 
L 4122 3641 
Q 3803 3938 3442 4084 
Q 3081 4231 2675 4231 
Q 1875 4231 1450 3742 
Q 1025 3253 1025 2328 
Q 1025 1406 1450 917 
Q 1875 428 2675 428 
Q 3081 428 3442 575 
Q 3803 722 4122 1019 
L 4122 359 
Q 3791 134 3420 21 
Q 3050 -91 2638 -91 
Q 1578 -91 968 557 
Q 359 1206 359 2328 
Q 359 3453 968 4101 
Q 1578 4750 2638 4750 
Q 3056 4750 3426 4639 
Q 3797 4528 4122 4306 
z
" transform="scale(0.015625)"/>
      </defs>
      <use xlink:href="#DejaVuSans-43"/>
      <use xlink:href="#DejaVuSans-6c" x="69.824219"/>
      <use xlink:href="#DejaVuSans-6f" x="97.607422"/>
      <use xlink:href="#DejaVuSans-73" x="158.789062"/>
      <use xlink:href="#DejaVuSans-65" x="210.888672"/>
      <use xlink:href="#DejaVuSans-20" x="272.412109"/>
      <use xlink:href="#DejaVuSans-50" x="304.199219"/>
      <use xlink:href="#DejaVuSans-72" x="362.751953"/>
      <use xlink:href="#DejaVuSans-69" x="403.865234"/>
      <use xlink:href="#DejaVuSans-63" x="431.648438"/>
      <use xlink:href="#DejaVuSans-65" x="486.628906"/>
     </g>
    </g>
    <g id="PathCollection_2">
     <g>
      <use xlink:href="#mbece6158e6" x="19" y="46.809063" style="fill: #ff0000; stroke: #ff0000"/>
     </g>
    </g>
    <g id="text_3">
     <!-- Outlier -->
     <g transform="translate(37 49.434063) scale(0.1 -0.1)">
      <defs>
       <path id="DejaVuSans-4f" d="M 2522 4238 
Q 1834 4238 1429 3725 
Q 1025 3213 1025 2328 
Q 1025 1447 1429 934 
Q 1834 422 2522 422 
Q 3209 422 3611 934 
Q 4013 1447 4013 2328 
Q 4013 3213 3611 3725 
Q 3209 4238 2522 4238 
z
M 2522 4750 
Q 3503 4750 4090 4092 
Q 4678 3434 4678 2328 
Q 4678 1225 4090 567 
Q 3503 -91 2522 -91 
Q 1538 -91 948 565 
Q 359 1222 359 2328 
Q 359 3434 948 4092 
Q 1538 4750 2522 4750 
z
" transform="scale(0.015625)"/>
       <path id="DejaVuSans-75" d="M 544 1381 
L 544 3500 
L 1119 3500 
L 1119 1403 
Q 1119 906 1312 657 
Q 1506 409 1894 409 
Q 2359 409 2629 706 
Q 2900 1003 2900 1516 
L 2900 3500 
L 3475 3500 
L 3475 0 
L 2900 0 
L 2900 538 
Q 2691 219 2414 64 
Q 2138 -91 1772 -91 
Q 1169 -91 856 284 
Q 544 659 544 1381 
z
M 1991 3584 
L 1991 3584 
z
" transform="scale(0.015625)"/>
      </defs>
      <use xlink:href="#DejaVuSans-4f"/>
      <use xlink:href="#DejaVuSans-75" x="78.710938"/>
      <use xlink:href="#DejaVuSans-74" x="142.089844"/>
      <use xlink:href="#DejaVuSans-6c" x="181.298828"/>
      <use xlink:href="#DejaVuSans-69" x="209.082031"/>
      <use xlink:href="#DejaVuSans-65" x="236.865234"/>
      <use xlink:href="#DejaVuSans-72" x="298.388672"/>
     </g>
    </g>
   </g>
  </g>
 </g>
 <defs>
  <clipPath id="p1ac46a2b6a">
   <rect x="0" y="18.1575" width="781.2" height="388.08"/>
  </clipPath>
 </defs>
</svg>
