<?xml version="1.0" encoding="utf-8" standalone="no"?>
<!DOCTYPE svg PUBLIC "-//W3C//DTD SVG 1.1//EN"
  "http://www.w3.org/Graphics/SVG/1.1/DTD/svg11.dtd">
<svg xmlns:xlink="http://www.w3.org/1999/xlink" width="781.2pt" height="406.2375pt" viewBox="0 0 781.2 406.2375" xmlns="http://www.w3.org/2000/svg" version="1.1">
 <metadata>
  <rdf:RDF xmlns:dc="http://purl.org/dc/elements/1.1/" xmlns:cc="http://creativecommons.org/ns#" xmlns:rdf="http://www.w3.org/1999/02/22-rdf-syntax-ns#">
   <cc:Work>
    <dc:type rdf:resource="http://purl.org/dc/dcmitype/StillImage"/>
    <dc:date>2024-07-29T22:21:55.638974</dc:date>
    <dc:format>image/svg+xml</dc:format>
    <dc:creator>
     <cc:Agent>
      <dc:title>Matplotlib v3.9.0, https://matplotlib.org/</dc:title>
     </cc:Agent>
    </dc:creator>
   </cc:Work>
  </rdf:RDF>
 </metadata>
 <defs>
  <style type="text/css">*{stroke-linejoin: round; stroke-linecap: butt}</style>
 </defs>
 <g id="figure_1">
  <g id="patch_1">
   <path d="M 0 406.2375 
L 781.2 406.2375 
L 781.2 0 
L 0 0 
z
" style="fill: #ffffff"/>
  </g>
  <g id="axes_1">
   <g id="PathCollection_1">
    <defs>
     <path id="mc78b9392a6" d="M 0 3 
C 0.795609 3 1.55874 2.683901 2.12132 2.12132 
C 2.683901 1.55874 3 0.795609 3 0 
C 3 -0.795609 2.683901 -1.55874 2.12132 -2.12132 
C 1.55874 -2.683901 0.795609 -3 0 -3 
C -0.795609 -3 -1.55874 -2.683901 -2.12132 -2.12132 
C -2.683901 -1.55874 -3 -0.795609 -3 0 
C -3 0.795609 -2.683901 1.55874 -2.12132 2.12132 
C -1.55874 2.683901 -0.795609 3 0 3 
z
" style="stroke: #ff0000"/>
    </defs>
    <g clip-path="url(#pa1a419098f)">
     <use xlink:href="#mc78b9392a6" x="745.690909" y="332.758651" style="fill: #ff0000; stroke: #ff0000"/>
    </g>
   </g>
   <g id="line2d_1">
    <path d="M 35.509091 345.449299 
L 37.454795 340.37304 
L 43.291905 342.911169 
L 47.183313 345.449299 
L 49.129016 345.449299 
L 51.07472 342.911169 
L 56.911831 340.37304 
L 58.857534 342.911169 
L 60.803238 380.983112 
L 62.748941 373.368723 
L 64.694645 358.139946 
L 70.531756 360.678076 
L 74.423163 370.830594 
L 76.368867 342.911169 
L 78.31457 350.525558 
L 84.151681 322.606133 
L 86.097385 309.915486 
L 88.043088 320.068004 
L 89.988792 370.830594 
L 91.934496 350.525558 
L 97.771606 350.525558 
L 99.71731 363.216205 
L 103.608717 378.444982 
L 105.554421 388.5975 
L 111.391532 380.983112 
L 113.337235 368.292464 
L 115.282939 370.830594 
L 117.228643 353.063687 
L 119.174346 350.525558 
L 125.011457 370.830594 
L 130.848568 370.830594 
L 132.794271 363.216205 
L 138.631382 370.830594 
L 140.577086 365.754335 
L 142.52279 350.525558 
L 144.468493 320.068004 
L 146.414197 335.296781 
L 152.251308 355.601817 
L 154.197011 332.758651 
L 156.142715 342.911169 
L 158.088418 320.068004 
L 160.034122 299.762968 
L 165.871233 269.305414 
L 167.816936 317.529874 
L 169.76264 325.144263 
L 171.708344 294.686709 
L 173.654047 294.686709 
L 179.491158 256.614766 
L 183.382565 289.61045 
L 185.328269 297.224838 
L 187.273973 284.534191 
L 193.111083 284.534191 
L 197.002491 269.305414 
L 198.948194 276.919802 
L 200.893898 246.462248 
L 206.731009 241.385989 
L 208.676712 246.462248 
L 210.622416 264.229155 
L 212.56812 246.462248 
L 214.513823 243.924119 
L 220.350934 246.462248 
L 222.296638 238.84786 
L 224.242341 233.771601 
L 226.188045 213.466565 
L 228.133748 205.852176 
L 233.970859 200.775917 
L 235.916563 213.466565 
L 237.862267 190.623399 
L 239.80797 155.089586 
L 241.753674 160.165845 
L 247.590785 142.398939 
L 249.536488 177.932752 
L 251.482192 162.703975 
L 253.427895 208.390306 
L 255.373599 236.30973 
L 261.21071 231.233471 
L 263.156413 269.305414 
L 265.102117 261.691025 
L 278.722042 325.144263 
L 280.667746 309.915486 
L 282.61345 287.07232 
L 290.396264 271.843543 
L 292.341968 251.538507 
L 294.287671 226.157212 
L 296.233375 243.924119 
L 302.070486 193.161529 
L 304.016189 218.542824 
L 305.961893 200.775917 
L 307.907597 210.928435 
L 309.8533 243.924119 
L 315.690411 238.84786 
L 317.636115 249.000378 
L 319.581818 246.462248 
L 321.527522 264.229155 
L 323.473225 256.614766 
L 329.310336 287.07232 
L 331.25604 287.07232 
L 333.201743 238.84786 
L 335.147447 243.924119 
L 337.093151 236.30973 
L 342.930262 175.394622 
L 344.875965 172.856493 
L 346.821669 218.542824 
L 348.767372 195.699658 
L 350.713076 177.932752 
L 356.550187 160.165845 
L 358.49589 122.093903 
L 360.441594 106.865126 
L 362.387298 134.78455 
L 364.333001 150.013327 
L 370.170112 142.398939 
L 372.115816 137.32268 
L 374.061519 129.708291 
L 376.007223 152.551457 
L 377.952927 152.551457 
L 383.790037 142.398939 
L 385.735741 152.551457 
L 387.681445 205.852176 
L 389.627148 213.466565 
L 391.572852 183.009011 
L 397.409963 193.161529 
L 399.355666 167.780234 
L 401.30137 157.627716 
L 403.247073 134.78455 
L 405.192777 147.475198 
L 411.029888 129.708291 
L 412.975592 129.708291 
L 414.921295 124.632032 
L 416.866999 139.860809 
L 418.812702 132.246421 
L 424.649813 142.398939 
L 428.54122 132.246421 
L 430.486924 147.475198 
L 432.432628 157.627716 
L 440.215442 144.937068 
L 442.161146 276.919802 
L 444.106849 246.462248 
L 453.835367 185.54714 
L 455.781071 170.318363 
L 457.726775 157.627716 
L 459.672478 198.237788 
L 465.509589 160.165845 
L 469.400996 144.937068 
L 471.3467 167.780234 
L 473.292403 233.771601 
L 479.129514 231.233471 
L 481.075218 279.457932 
L 483.020922 307.377356 
L 484.966625 322.606133 
L 486.912329 292.148579 
L 492.74944 276.919802 
L 494.695143 254.076637 
L 496.640847 271.843543 
L 498.58655 221.080953 
L 500.532254 221.080953 
L 506.369365 193.161529 
L 508.315068 193.161529 
L 510.260772 152.551457 
L 512.206476 101.788867 
L 514.152179 94.174478 
L 519.98929 144.937068 
L 521.934994 167.780234 
L 523.880697 162.703975 
L 525.826401 142.398939 
L 535.554919 157.627716 
L 537.500623 188.08527 
L 539.446326 172.856493 
L 541.39203 144.937068 
L 547.229141 139.860809 
L 549.174844 132.246421 
L 551.120548 117.017644 
L 553.066252 117.017644 
L 555.011955 91.636349 
L 562.79477 122.093903 
L 564.740473 117.017644 
L 566.686177 91.636349 
L 574.468991 96.712608 
L 576.414695 109.403255 
L 578.360399 119.555773 
L 580.306102 122.093903 
L 582.251806 68.793183 
L 588.088917 111.941385 
L 590.03462 96.712608 
L 593.926027 35.7975 
L 595.871731 101.788867 
L 601.708842 99.250737 
L 603.654545 106.865126 
L 605.600249 134.78455 
L 607.545953 109.403255 
L 609.491656 104.326996 
L 615.328767 114.479514 
L 617.274471 78.945701 
L 619.220174 68.793183 
L 623.111582 78.945701 
L 628.948692 129.708291 
L 630.894396 134.78455 
L 632.8401 165.242104 
L 634.785803 150.013327 
L 636.731507 147.475198 
L 642.568618 137.32268 
L 644.514321 144.937068 
L 648.405729 155.089586 
L 650.351432 210.928435 
L 656.188543 177.932752 
L 658.134247 198.237788 
L 660.07995 195.699658 
L 662.025654 172.856493 
L 663.971357 177.932752 
L 669.808468 144.937068 
L 671.754172 175.394622 
L 673.699875 183.009011 
L 675.645579 193.161529 
L 677.591283 195.699658 
L 683.428394 172.856493 
L 685.374097 183.009011 
L 689.265504 144.937068 
L 691.211208 114.479514 
L 698.994022 99.250737 
L 700.939726 124.632032 
L 702.88543 129.708291 
L 704.831133 152.551457 
L 710.668244 165.242104 
L 712.613948 175.394622 
L 716.505355 165.242104 
L 718.451059 185.54714 
L 724.288169 193.161529 
L 726.233873 226.157212 
L 728.179577 218.542824 
L 730.12528 241.385989 
L 732.070984 259.152896 
L 737.908095 264.229155 
L 739.853798 266.767284 
L 741.799502 279.457932 
L 743.745205 289.61045 
L 745.690909 332.758651 
L 745.690909 332.758651 
" clip-path="url(#pa1a419098f)" style="fill: none; stroke: #1f77b4; stroke-width: 3.5; stroke-linecap: square"/>
   </g>
   <g id="text_1">
    <!-- Stock Price with Anomalies for KT&amp;G -->
    <g transform="translate(244.64125 12.1575) scale(0.16 -0.16)">
     <defs>
      <path id="DejaVuSans-53" d="M 3425 4513 
L 3425 3897 
Q 3066 4069 2747 4153 
Q 2428 4238 2131 4238 
Q 1616 4238 1336 4038 
Q 1056 3838 1056 3469 
Q 1056 3159 1242 3001 
Q 1428 2844 1947 2747 
L 2328 2669 
Q 3034 2534 3370 2195 
Q 3706 1856 3706 1288 
Q 3706 609 3251 259 
Q 2797 -91 1919 -91 
Q 1588 -91 1214 -16 
Q 841 59 441 206 
L 441 856 
Q 825 641 1194 531 
Q 1563 422 1919 422 
Q 2459 422 2753 634 
Q 3047 847 3047 1241 
Q 3047 1584 2836 1778 
Q 2625 1972 2144 2069 
L 1759 2144 
Q 1053 2284 737 2584 
Q 422 2884 422 3419 
Q 422 4038 858 4394 
Q 1294 4750 2059 4750 
Q 2388 4750 2728 4690 
Q 3069 4631 3425 4513 
z
" transform="scale(0.015625)"/>
      <path id="DejaVuSans-74" d="M 1172 4494 
L 1172 3500 
L 2356 3500 
L 2356 3053 
L 1172 3053 
L 1172 1153 
Q 1172 725 1289 603 
Q 1406 481 1766 481 
L 2356 481 
L 2356 0 
L 1766 0 
Q 1100 0 847 248 
Q 594 497 594 1153 
L 594 3053 
L 172 3053 
L 172 3500 
L 594 3500 
L 594 4494 
L 1172 4494 
z
" transform="scale(0.015625)"/>
      <path id="DejaVuSans-6f" d="M 1959 3097 
Q 1497 3097 1228 2736 
Q 959 2375 959 1747 
Q 959 1119 1226 758 
Q 1494 397 1959 397 
Q 2419 397 2687 759 
Q 2956 1122 2956 1747 
Q 2956 2369 2687 2733 
Q 2419 3097 1959 3097 
z
M 1959 3584 
Q 2709 3584 3137 3096 
Q 3566 2609 3566 1747 
Q 3566 888 3137 398 
Q 2709 -91 1959 -91 
Q 1206 -91 779 398 
Q 353 888 353 1747 
Q 353 2609 779 3096 
Q 1206 3584 1959 3584 
z
" transform="scale(0.015625)"/>
      <path id="DejaVuSans-63" d="M 3122 3366 
L 3122 2828 
Q 2878 2963 2633 3030 
Q 2388 3097 2138 3097 
Q 1578 3097 1268 2742 
Q 959 2388 959 1747 
Q 959 1106 1268 751 
Q 1578 397 2138 397 
Q 2388 397 2633 464 
Q 2878 531 3122 666 
L 3122 134 
Q 2881 22 2623 -34 
Q 2366 -91 2075 -91 
Q 1284 -91 818 406 
Q 353 903 353 1747 
Q 353 2603 823 3093 
Q 1294 3584 2113 3584 
Q 2378 3584 2631 3529 
Q 2884 3475 3122 3366 
z
" transform="scale(0.015625)"/>
      <path id="DejaVuSans-6b" d="M 581 4863 
L 1159 4863 
L 1159 1991 
L 2875 3500 
L 3609 3500 
L 1753 1863 
L 3688 0 
L 2938 0 
L 1159 1709 
L 1159 0 
L 581 0 
L 581 4863 
z
" transform="scale(0.015625)"/>
      <path id="DejaVuSans-20" transform="scale(0.015625)"/>
      <path id="DejaVuSans-50" d="M 1259 4147 
L 1259 2394 
L 2053 2394 
Q 2494 2394 2734 2622 
Q 2975 2850 2975 3272 
Q 2975 3691 2734 3919 
Q 2494 4147 2053 4147 
L 1259 4147 
z
M 628 4666 
L 2053 4666 
Q 2838 4666 3239 4311 
Q 3641 3956 3641 3272 
Q 3641 2581 3239 2228 
Q 2838 1875 2053 1875 
L 1259 1875 
L 1259 0 
L 628 0 
L 628 4666 
z
" transform="scale(0.015625)"/>
      <path id="DejaVuSans-72" d="M 2631 2963 
Q 2534 3019 2420 3045 
Q 2306 3072 2169 3072 
Q 1681 3072 1420 2755 
Q 1159 2438 1159 1844 
L 1159 0 
L 581 0 
L 581 3500 
L 1159 3500 
L 1159 2956 
Q 1341 3275 1631 3429 
Q 1922 3584 2338 3584 
Q 2397 3584 2469 3576 
Q 2541 3569 2628 3553 
L 2631 2963 
z
" transform="scale(0.015625)"/>
      <path id="DejaVuSans-69" d="M 603 3500 
L 1178 3500 
L 1178 0 
L 603 0 
L 603 3500 
z
M 603 4863 
L 1178 4863 
L 1178 4134 
L 603 4134 
L 603 4863 
z
" transform="scale(0.015625)"/>
      <path id="DejaVuSans-65" d="M 3597 1894 
L 3597 1613 
L 953 1613 
Q 991 1019 1311 708 
Q 1631 397 2203 397 
Q 2534 397 2845 478 
Q 3156 559 3463 722 
L 3463 178 
Q 3153 47 2828 -22 
Q 2503 -91 2169 -91 
Q 1331 -91 842 396 
Q 353 884 353 1716 
Q 353 2575 817 3079 
Q 1281 3584 2069 3584 
Q 2775 3584 3186 3129 
Q 3597 2675 3597 1894 
z
M 3022 2063 
Q 3016 2534 2758 2815 
Q 2500 3097 2075 3097 
Q 1594 3097 1305 2825 
Q 1016 2553 972 2059 
L 3022 2063 
z
" transform="scale(0.015625)"/>
      <path id="DejaVuSans-77" d="M 269 3500 
L 844 3500 
L 1563 769 
L 2278 3500 
L 2956 3500 
L 3675 769 
L 4391 3500 
L 4966 3500 
L 4050 0 
L 3372 0 
L 2619 2869 
L 1863 0 
L 1184 0 
L 269 3500 
z
" transform="scale(0.015625)"/>
      <path id="DejaVuSans-68" d="M 3513 2113 
L 3513 0 
L 2938 0 
L 2938 2094 
Q 2938 2591 2744 2837 
Q 2550 3084 2163 3084 
Q 1697 3084 1428 2787 
Q 1159 2491 1159 1978 
L 1159 0 
L 581 0 
L 581 4863 
L 1159 4863 
L 1159 2956 
Q 1366 3272 1645 3428 
Q 1925 3584 2291 3584 
Q 2894 3584 3203 3211 
Q 3513 2838 3513 2113 
z
" transform="scale(0.015625)"/>
      <path id="DejaVuSans-41" d="M 2188 4044 
L 1331 1722 
L 3047 1722 
L 2188 4044 
z
M 1831 4666 
L 2547 4666 
L 4325 0 
L 3669 0 
L 3244 1197 
L 1141 1197 
L 716 0 
L 50 0 
L 1831 4666 
z
" transform="scale(0.015625)"/>
      <path id="DejaVuSans-6e" d="M 3513 2113 
L 3513 0 
L 2938 0 
L 2938 2094 
Q 2938 2591 2744 2837 
Q 2550 3084 2163 3084 
Q 1697 3084 1428 2787 
Q 1159 2491 1159 1978 
L 1159 0 
L 581 0 
L 581 3500 
L 1159 3500 
L 1159 2956 
Q 1366 3272 1645 3428 
Q 1925 3584 2291 3584 
Q 2894 3584 3203 3211 
Q 3513 2838 3513 2113 
z
" transform="scale(0.015625)"/>
      <path id="DejaVuSans-6d" d="M 3328 2828 
Q 3544 3216 3844 3400 
Q 4144 3584 4550 3584 
Q 5097 3584 5394 3201 
Q 5691 2819 5691 2113 
L 5691 0 
L 5113 0 
L 5113 2094 
Q 5113 2597 4934 2840 
Q 4756 3084 4391 3084 
Q 3944 3084 3684 2787 
Q 3425 2491 3425 1978 
L 3425 0 
L 2847 0 
L 2847 2094 
Q 2847 2600 2669 2842 
Q 2491 3084 2119 3084 
Q 1678 3084 1418 2786 
Q 1159 2488 1159 1978 
L 1159 0 
L 581 0 
L 581 3500 
L 1159 3500 
L 1159 2956 
Q 1356 3278 1631 3431 
Q 1906 3584 2284 3584 
Q 2666 3584 2933 3390 
Q 3200 3197 3328 2828 
z
" transform="scale(0.015625)"/>
      <path id="DejaVuSans-61" d="M 2194 1759 
Q 1497 1759 1228 1600 
Q 959 1441 959 1056 
Q 959 750 1161 570 
Q 1363 391 1709 391 
Q 2188 391 2477 730 
Q 2766 1069 2766 1631 
L 2766 1759 
L 2194 1759 
z
M 3341 1997 
L 3341 0 
L 2766 0 
L 2766 531 
Q 2569 213 2275 61 
Q 1981 -91 1556 -91 
Q 1019 -91 701 211 
Q 384 513 384 1019 
Q 384 1609 779 1909 
Q 1175 2209 1959 2209 
L 2766 2209 
L 2766 2266 
Q 2766 2663 2505 2880 
Q 2244 3097 1772 3097 
Q 1472 3097 1187 3025 
Q 903 2953 641 2809 
L 641 3341 
Q 956 3463 1253 3523 
Q 1550 3584 1831 3584 
Q 2591 3584 2966 3190 
Q 3341 2797 3341 1997 
z
" transform="scale(0.015625)"/>
      <path id="DejaVuSans-6c" d="M 603 4863 
L 1178 4863 
L 1178 0 
L 603 0 
L 603 4863 
z
" transform="scale(0.015625)"/>
      <path id="DejaVuSans-73" d="M 2834 3397 
L 2834 2853 
Q 2591 2978 2328 3040 
Q 2066 3103 1784 3103 
Q 1356 3103 1142 2972 
Q 928 2841 928 2578 
Q 928 2378 1081 2264 
Q 1234 2150 1697 2047 
L 1894 2003 
Q 2506 1872 2764 1633 
Q 3022 1394 3022 966 
Q 3022 478 2636 193 
Q 2250 -91 1575 -91 
Q 1294 -91 989 -36 
Q 684 19 347 128 
L 347 722 
Q 666 556 975 473 
Q 1284 391 1588 391 
Q 1994 391 2212 530 
Q 2431 669 2431 922 
Q 2431 1156 2273 1281 
Q 2116 1406 1581 1522 
L 1381 1569 
Q 847 1681 609 1914 
Q 372 2147 372 2553 
Q 372 3047 722 3315 
Q 1072 3584 1716 3584 
Q 2034 3584 2315 3537 
Q 2597 3491 2834 3397 
z
" transform="scale(0.015625)"/>
      <path id="DejaVuSans-66" d="M 2375 4863 
L 2375 4384 
L 1825 4384 
Q 1516 4384 1395 4259 
Q 1275 4134 1275 3809 
L 1275 3500 
L 2222 3500 
L 2222 3053 
L 1275 3053 
L 1275 0 
L 697 0 
L 697 3053 
L 147 3053 
L 147 3500 
L 697 3500 
L 697 3744 
Q 697 4328 969 4595 
Q 1241 4863 1831 4863 
L 2375 4863 
z
" transform="scale(0.015625)"/>
      <path id="DejaVuSans-4b" d="M 628 4666 
L 1259 4666 
L 1259 2694 
L 3353 4666 
L 4166 4666 
L 1850 2491 
L 4331 0 
L 3500 0 
L 1259 2247 
L 1259 0 
L 628 0 
L 628 4666 
z
" transform="scale(0.015625)"/>
      <path id="DejaVuSans-54" d="M -19 4666 
L 3928 4666 
L 3928 4134 
L 2272 4134 
L 2272 0 
L 1638 0 
L 1638 4134 
L -19 4134 
L -19 4666 
z
" transform="scale(0.015625)"/>
      <path id="DejaVuSans-26" d="M 1556 2509 
Q 1272 2256 1139 2004 
Q 1006 1753 1006 1478 
Q 1006 1022 1337 719 
Q 1669 416 2169 416 
Q 2466 416 2725 514 
Q 2984 613 3213 813 
L 1556 2509 
z
M 1997 2859 
L 3584 1234 
Q 3769 1513 3872 1830 
Q 3975 2147 3994 2503 
L 4575 2503 
Q 4538 2091 4375 1687 
Q 4213 1284 3922 891 
L 4794 0 
L 4006 0 
L 3559 459 
Q 3234 181 2878 45 
Q 2522 -91 2113 -91 
Q 1359 -91 881 339 
Q 403 769 403 1441 
Q 403 1841 612 2192 
Q 822 2544 1241 2853 
Q 1091 3050 1012 3245 
Q 934 3441 934 3628 
Q 934 4134 1281 4442 
Q 1628 4750 2203 4750 
Q 2463 4750 2720 4694 
Q 2978 4638 3244 4525 
L 3244 3956 
Q 2972 4103 2725 4179 
Q 2478 4256 2266 4256 
Q 1938 4256 1733 4082 
Q 1528 3909 1528 3634 
Q 1528 3475 1620 3314 
Q 1713 3153 1997 2859 
z
" transform="scale(0.015625)"/>
      <path id="DejaVuSans-47" d="M 3809 666 
L 3809 1919 
L 2778 1919 
L 2778 2438 
L 4434 2438 
L 4434 434 
Q 4069 175 3628 42 
Q 3188 -91 2688 -91 
Q 1594 -91 976 548 
Q 359 1188 359 2328 
Q 359 3472 976 4111 
Q 1594 4750 2688 4750 
Q 3144 4750 3555 4637 
Q 3966 4525 4313 4306 
L 4313 3634 
Q 3963 3931 3569 4081 
Q 3175 4231 2741 4231 
Q 1884 4231 1454 3753 
Q 1025 3275 1025 2328 
Q 1025 1384 1454 906 
Q 1884 428 2741 428 
Q 3075 428 3337 486 
Q 3600 544 3809 666 
z
" transform="scale(0.015625)"/>
     </defs>
     <use xlink:href="#DejaVuSans-53"/>
     <use xlink:href="#DejaVuSans-74" x="63.476562"/>
     <use xlink:href="#DejaVuSans-6f" x="102.685547"/>
     <use xlink:href="#DejaVuSans-63" x="163.867188"/>
     <use xlink:href="#DejaVuSans-6b" x="218.847656"/>
     <use xlink:href="#DejaVuSans-20" x="276.757812"/>
     <use xlink:href="#DejaVuSans-50" x="308.544922"/>
     <use xlink:href="#DejaVuSans-72" x="367.097656"/>
     <use xlink:href="#DejaVuSans-69" x="408.210938"/>
     <use xlink:href="#DejaVuSans-63" x="435.994141"/>
     <use xlink:href="#DejaVuSans-65" x="490.974609"/>
     <use xlink:href="#DejaVuSans-20" x="552.498047"/>
     <use xlink:href="#DejaVuSans-77" x="584.285156"/>
     <use xlink:href="#DejaVuSans-69" x="666.072266"/>
     <use xlink:href="#DejaVuSans-74" x="693.855469"/>
     <use xlink:href="#DejaVuSans-68" x="733.064453"/>
     <use xlink:href="#DejaVuSans-20" x="796.443359"/>
     <use xlink:href="#DejaVuSans-41" x="828.230469"/>
     <use xlink:href="#DejaVuSans-6e" x="896.638672"/>
     <use xlink:href="#DejaVuSans-6f" x="960.017578"/>
     <use xlink:href="#DejaVuSans-6d" x="1021.199219"/>
     <use xlink:href="#DejaVuSans-61" x="1118.611328"/>
     <use xlink:href="#DejaVuSans-6c" x="1179.890625"/>
     <use xlink:href="#DejaVuSans-69" x="1207.673828"/>
     <use xlink:href="#DejaVuSans-65" x="1235.457031"/>
     <use xlink:href="#DejaVuSans-73" x="1296.980469"/>
     <use xlink:href="#DejaVuSans-20" x="1349.080078"/>
     <use xlink:href="#DejaVuSans-66" x="1380.867188"/>
     <use xlink:href="#DejaVuSans-6f" x="1416.072266"/>
     <use xlink:href="#DejaVuSans-72" x="1477.253906"/>
     <use xlink:href="#DejaVuSans-20" x="1518.367188"/>
     <use xlink:href="#DejaVuSans-4b" x="1550.154297"/>
     <use xlink:href="#DejaVuSans-54" x="1607.980469"/>
     <use xlink:href="#DejaVuSans-26" x="1669.064453"/>
     <use xlink:href="#DejaVuSans-47" x="1747.042969"/>
    </g>
   </g>
   <g id="legend_1">
    <g id="patch_2">
     <path d="M 687.384375 55.51375 
L 774.2 55.51375 
Q 776.2 55.51375 776.2 53.51375 
L 776.2 25.1575 
Q 776.2 23.1575 774.2 23.1575 
L 687.384375 23.1575 
Q 685.384375 23.1575 685.384375 25.1575 
L 685.384375 53.51375 
Q 685.384375 55.51375 687.384375 55.51375 
z
" style="fill: #ffffff; opacity: 0.8; stroke: #cccccc; stroke-linejoin: miter"/>
    </g>
    <g id="line2d_2">
     <path d="M 689.384375 31.255938 
L 699.384375 31.255938 
L 709.384375 31.255938 
" style="fill: none; stroke: #1f77b4; stroke-width: 1.5; stroke-linecap: square"/>
    </g>
    <g id="text_2">
     <!-- Close Price -->
     <g transform="translate(717.384375 34.755938) scale(0.1 -0.1)">
      <defs>
       <path id="DejaVuSans-43" d="M 4122 4306 
L 4122 3641 
Q 3803 3938 3442 4084 
Q 3081 4231 2675 4231 
Q 1875 4231 1450 3742 
Q 1025 3253 1025 2328 
Q 1025 1406 1450 917 
Q 1875 428 2675 428 
Q 3081 428 3442 575 
Q 3803 722 4122 1019 
L 4122 359 
Q 3791 134 3420 21 
Q 3050 -91 2638 -91 
Q 1578 -91 968 557 
Q 359 1206 359 2328 
Q 359 3453 968 4101 
Q 1578 4750 2638 4750 
Q 3056 4750 3426 4639 
Q 3797 4528 4122 4306 
z
" transform="scale(0.015625)"/>
      </defs>
      <use xlink:href="#DejaVuSans-43"/>
      <use xlink:href="#DejaVuSans-6c" x="69.824219"/>
      <use xlink:href="#DejaVuSans-6f" x="97.607422"/>
      <use xlink:href="#DejaVuSans-73" x="158.789062"/>
      <use xlink:href="#DejaVuSans-65" x="210.888672"/>
      <use xlink:href="#DejaVuSans-20" x="272.412109"/>
      <use xlink:href="#DejaVuSans-50" x="304.199219"/>
      <use xlink:href="#DejaVuSans-72" x="362.751953"/>
      <use xlink:href="#DejaVuSans-69" x="403.865234"/>
      <use xlink:href="#DejaVuSans-63" x="431.648438"/>
      <use xlink:href="#DejaVuSans-65" x="486.628906"/>
     </g>
    </g>
    <g id="PathCollection_2">
     <g>
      <use xlink:href="#mc78b9392a6" x="699.384375" y="46.809063" style="fill: #ff0000; stroke: #ff0000"/>
     </g>
    </g>
    <g id="text_3">
     <!-- Outlier -->
     <g transform="translate(717.384375 49.434063) scale(0.1 -0.1)">
      <defs>
       <path id="DejaVuSans-4f" d="M 2522 4238 
Q 1834 4238 1429 3725 
Q 1025 3213 1025 2328 
Q 1025 1447 1429 934 
Q 1834 422 2522 422 
Q 3209 422 3611 934 
Q 4013 1447 4013 2328 
Q 4013 3213 3611 3725 
Q 3209 4238 2522 4238 
z
M 2522 4750 
Q 3503 4750 4090 4092 
Q 4678 3434 4678 2328 
Q 4678 1225 4090 567 
Q 3503 -91 2522 -91 
Q 1538 -91 948 565 
Q 359 1222 359 2328 
Q 359 3434 948 4092 
Q 1538 4750 2522 4750 
z
" transform="scale(0.015625)"/>
       <path id="DejaVuSans-75" d="M 544 1381 
L 544 3500 
L 1119 3500 
L 1119 1403 
Q 1119 906 1312 657 
Q 1506 409 1894 409 
Q 2359 409 2629 706 
Q 2900 1003 2900 1516 
L 2900 3500 
L 3475 3500 
L 3475 0 
L 2900 0 
L 2900 538 
Q 2691 219 2414 64 
Q 2138 -91 1772 -91 
Q 1169 -91 856 284 
Q 544 659 544 1381 
z
M 1991 3584 
L 1991 3584 
z
" transform="scale(0.015625)"/>
      </defs>
      <use xlink:href="#DejaVuSans-4f"/>
      <use xlink:href="#DejaVuSans-75" x="78.710938"/>
      <use xlink:href="#DejaVuSans-74" x="142.089844"/>
      <use xlink:href="#DejaVuSans-6c" x="181.298828"/>
      <use xlink:href="#DejaVuSans-69" x="209.082031"/>
      <use xlink:href="#DejaVuSans-65" x="236.865234"/>
      <use xlink:href="#DejaVuSans-72" x="298.388672"/>
     </g>
    </g>
   </g>
  </g>
 </g>
 <defs>
  <clipPath id="pa1a419098f">
   <rect x="0" y="18.1575" width="781.2" height="388.08"/>
  </clipPath>
 </defs>
</svg>
