<?xml version="1.0" encoding="utf-8" standalone="no"?>
<!DOCTYPE svg PUBLIC "-//W3C//DTD SVG 1.1//EN"
  "http://www.w3.org/Graphics/SVG/1.1/DTD/svg11.dtd">
<svg xmlns:xlink="http://www.w3.org/1999/xlink" width="781.2pt" height="406.2375pt" viewBox="0 0 781.2 406.2375" xmlns="http://www.w3.org/2000/svg" version="1.1">
 <metadata>
  <rdf:RDF xmlns:dc="http://purl.org/dc/elements/1.1/" xmlns:cc="http://creativecommons.org/ns#" xmlns:rdf="http://www.w3.org/1999/02/22-rdf-syntax-ns#">
   <cc:Work>
    <dc:type rdf:resource="http://purl.org/dc/dcmitype/StillImage"/>
    <dc:date>2024-07-29T22:21:55.841307</dc:date>
    <dc:format>image/svg+xml</dc:format>
    <dc:creator>
     <cc:Agent>
      <dc:title>Matplotlib v3.9.0, https://matplotlib.org/</dc:title>
     </cc:Agent>
    </dc:creator>
   </cc:Work>
  </rdf:RDF>
 </metadata>
 <defs>
  <style type="text/css">*{stroke-linejoin: round; stroke-linecap: butt}</style>
 </defs>
 <g id="figure_1">
  <g id="patch_1">
   <path d="M 0 406.2375 
L 781.2 406.2375 
L 781.2 0 
L 0 0 
z
" style="fill: #ffffff"/>
  </g>
  <g id="axes_1">
   <g id="PathCollection_1">
    <defs>
     <path id="m1f6a5c1c42" d="M 0 3 
C 0.795609 3 1.55874 2.683901 2.12132 2.12132 
C 2.683901 1.55874 3 0.795609 3 0 
C 3 -0.795609 2.683901 -1.55874 2.12132 -2.12132 
C 1.55874 -2.683901 0.795609 -3 0 -3 
C -0.795609 -3 -1.55874 -2.683901 -2.12132 -2.12132 
C -2.683901 -1.55874 -3 -0.795609 -3 0 
C -3 0.795609 -2.683901 1.55874 -2.12132 2.12132 
C -1.55874 2.683901 -0.795609 3 0 3 
z
" style="stroke: #ff0000"/>
    </defs>
    <g clip-path="url(#p764b5848b1)">
     <use xlink:href="#m1f6a5c1c42" x="743.745205" y="388.5975" style="fill: #ff0000; stroke: #ff0000"/>
     <use xlink:href="#m1f6a5c1c42" x="745.690909" y="384.870739" style="fill: #ff0000; stroke: #ff0000"/>
    </g>
   </g>
   <g id="line2d_1">
    <path d="M 35.509091 70.580599 
L 37.454795 65.611585 
L 43.291905 58.158063 
L 47.183313 45.735528 
L 49.129016 61.884824 
L 51.07472 39.524261 
L 56.911831 35.7975 
L 58.857534 42.008768 
L 60.803238 64.369331 
L 62.748941 69.338345 
L 64.694645 65.611585 
L 70.531756 99.15243 
L 72.47746 99.15243 
L 74.423163 102.87919 
L 76.368867 89.214401 
L 78.31457 96.667923 
L 84.151681 95.425669 
L 86.097385 99.15243 
L 88.043088 116.543979 
L 91.934496 109.090458 
L 97.771606 84.245387 
L 99.71731 89.214401 
L 103.608717 94.183415 
L 105.554421 97.910176 
L 111.391532 112.817218 
L 113.337235 112.817218 
L 115.282939 132.693275 
L 117.228643 122.755246 
L 119.174346 122.755246 
L 125.011457 127.724261 
L 128.902864 100.394683 
L 130.848568 105.363697 
L 132.794271 89.214401 
L 138.631382 54.431303 
L 140.577086 58.158063 
L 142.52279 75.549613 
L 144.468493 125.239754 
L 146.414197 122.755246 
L 152.251308 100.394683 
L 154.197011 104.121444 
L 156.142715 120.270739 
L 158.088418 121.512993 
L 160.034122 125.239754 
L 165.871233 157.538345 
L 167.816936 143.873556 
L 169.76264 109.090458 
L 171.708344 105.363697 
L 173.654047 116.543979 
L 179.491158 122.755246 
L 183.382565 142.631303 
L 185.328269 125.239754 
L 187.273973 138.904542 
L 193.111083 142.631303 
L 195.056787 126.482007 
L 197.002491 143.873556 
L 198.948194 131.451021 
L 200.893898 117.786232 
L 206.731009 109.090458 
L 208.676712 110.332711 
L 210.622416 109.090458 
L 212.56812 120.270739 
L 214.513823 147.600317 
L 220.350934 137.662289 
L 222.296638 130.208768 
L 224.242341 141.389049 
L 226.188045 153.811585 
L 228.133748 163.749613 
L 233.970859 164.991866 
L 235.916563 175.551021 
L 237.862267 181.762289 
L 239.80797 164.991866 
L 241.753674 157.538345 
L 247.590785 166.23412 
L 249.536488 179.277782 
L 251.482192 175.551021 
L 253.427895 191.07919 
L 255.373599 186.110176 
L 261.21071 204.743979 
L 263.156413 205.365106 
L 265.102117 204.122852 
L 278.722042 229.589049 
L 280.667746 215.303134 
L 282.61345 219.651021 
L 290.396264 226.483415 
L 292.341968 184.867923 
L 294.287671 183.004542 
L 296.233375 194.805951 
L 302.070486 207.228486 
L 304.016189 205.986232 
L 305.961893 218.408768 
L 307.907597 233.936937 
L 309.8533 253.812993 
L 315.690411 253.812993 
L 317.636115 238.905951 
L 319.581818 287.353838 
L 321.527522 299.776373 
L 323.473225 299.155246 
L 329.310336 292.943979 
L 331.25604 317.167923 
L 333.201743 327.105951 
L 335.147447 309.714401 
L 337.093151 296.670739 
L 342.930262 183.004542 
L 344.875965 245.738345 
L 346.821669 252.570739 
L 348.767372 263.129894 
L 350.713076 285.490458 
L 356.550187 279.900317 
L 358.49589 253.191866 
L 360.441594 235.17919 
L 362.387298 246.359472 
L 364.333001 259.403134 
L 370.170112 244.496092 
L 372.115816 240.769331 
L 374.061519 246.980599 
L 376.007223 238.905951 
L 377.952927 246.359472 
L 383.790037 256.2975 
L 385.735741 255.676373 
L 387.681445 240.769331 
L 389.627148 231.45243 
L 391.572852 263.751021 
L 397.409963 261.887641 
L 399.355666 261.887641 
L 401.30137 268.720035 
L 403.247073 266.235528 
L 405.192777 261.266514 
L 411.029888 263.751021 
L 412.975592 268.720035 
L 414.921295 286.732711 
L 416.866999 271.204542 
L 418.812702 271.825669 
L 424.649813 271.825669 
L 426.595517 266.856655 
L 428.54122 258.782007 
L 430.486924 270.583415 
L 432.432628 274.931303 
L 440.215442 279.900317 
L 442.161146 273.067923 
L 444.106849 264.993275 
L 453.835367 262.508768 
L 455.781071 279.27919 
L 457.726775 275.55243 
L 459.672478 279.27919 
L 465.509589 280.521444 
L 467.455293 277.41581 
L 469.400996 286.111585 
L 471.3467 279.900317 
L 473.292403 283.005951 
L 479.129514 299.776373 
L 481.075218 298.53412 
L 483.020922 311.577782 
L 484.966625 310.956655 
L 486.912329 319.65243 
L 492.74944 333.938345 
L 494.695143 332.074965 
L 496.640847 323.37919 
L 498.58655 338.907359 
L 500.532254 322.758063 
L 506.369365 327.105951 
L 508.315068 330.211585 
L 510.260772 322.758063 
L 512.206476 322.136937 
L 514.152179 314.683415 
L 519.98929 312.820035 
L 521.934994 327.727077 
L 523.880697 316.546796 
L 525.826401 306.608768 
L 535.554919 307.229894 
L 537.500623 314.062289 
L 539.446326 304.745387 
L 541.39203 286.732711 
L 547.229141 302.26088 
L 549.174844 294.186232 
L 551.120548 290.459472 
L 553.066252 288.596092 
L 555.011955 296.670739 
L 560.849066 287.353838 
L 562.79477 294.807359 
L 564.740473 298.53412 
L 566.686177 297.291866 
L 574.468991 301.018627 
L 576.414695 314.683415 
L 578.360399 315.304542 
L 580.306102 299.776373 
L 582.251806 296.049613 
L 588.088917 298.53412 
L 590.03462 274.931303 
L 591.980324 276.173556 
L 593.926027 279.27919 
L 595.871731 301.018627 
L 601.708842 289.838345 
L 603.654545 295.428486 
L 605.600249 289.838345 
L 607.545953 282.384824 
L 609.491656 282.384824 
L 615.328767 281.14257 
L 617.274471 291.701725 
L 619.220174 287.974965 
L 621.165878 297.291866 
L 623.111582 305.366514 
L 628.948692 304.745387 
L 630.894396 307.851021 
L 632.8401 328.969331 
L 634.785803 324.621444 
L 636.731507 328.969331 
L 642.568618 332.696092 
L 644.514321 331.453838 
L 648.405729 324.000317 
L 650.351432 334.559472 
L 656.188543 332.696092 
L 658.134247 341.391866 
L 660.07995 343.255246 
L 662.025654 327.727077 
L 663.971357 340.149613 
L 669.808468 325.863697 
L 671.754172 336.422852 
L 673.699875 317.789049 
L 675.645579 333.317218 
L 677.591283 333.938345 
L 683.428394 325.863697 
L 685.374097 312.820035 
L 689.265504 312.820035 
L 691.211208 310.335528 
L 698.994022 309.714401 
L 700.939726 307.851021 
L 702.88543 313.441162 
L 704.831133 319.65243 
L 710.668244 322.136937 
L 712.613948 317.167923 
L 716.505355 322.136937 
L 718.451059 328.348204 
L 724.288169 333.938345 
L 726.233873 343.255246 
L 728.179577 343.876373 
L 730.12528 346.36088 
L 732.070984 353.814401 
L 737.908095 343.255246 
L 739.853798 348.845387 
L 741.799502 371.205951 
L 743.745205 388.5975 
L 745.690909 384.870739 
L 745.690909 384.870739 
" clip-path="url(#p764b5848b1)" style="fill: none; stroke: #1f77b4; stroke-width: 3.5; stroke-linecap: square"/>
   </g>
   <g id="text_1">
    <!-- Stock Price with Anomalies for LG에너지솔루션 -->
    <g transform="translate(227.1275 12.1575) scale(0.16 -0.16)">
     <defs>
      <path id="DejaVuSans-53" d="M 3425 4513 
L 3425 3897 
Q 3066 4069 2747 4153 
Q 2428 4238 2131 4238 
Q 1616 4238 1336 4038 
Q 1056 3838 1056 3469 
Q 1056 3159 1242 3001 
Q 1428 2844 1947 2747 
L 2328 2669 
Q 3034 2534 3370 2195 
Q 3706 1856 3706 1288 
Q 3706 609 3251 259 
Q 2797 -91 1919 -91 
Q 1588 -91 1214 -16 
Q 841 59 441 206 
L 441 856 
Q 825 641 1194 531 
Q 1563 422 1919 422 
Q 2459 422 2753 634 
Q 3047 847 3047 1241 
Q 3047 1584 2836 1778 
Q 2625 1972 2144 2069 
L 1759 2144 
Q 1053 2284 737 2584 
Q 422 2884 422 3419 
Q 422 4038 858 4394 
Q 1294 4750 2059 4750 
Q 2388 4750 2728 4690 
Q 3069 4631 3425 4513 
z
" transform="scale(0.015625)"/>
      <path id="DejaVuSans-74" d="M 1172 4494 
L 1172 3500 
L 2356 3500 
L 2356 3053 
L 1172 3053 
L 1172 1153 
Q 1172 725 1289 603 
Q 1406 481 1766 481 
L 2356 481 
L 2356 0 
L 1766 0 
Q 1100 0 847 248 
Q 594 497 594 1153 
L 594 3053 
L 172 3053 
L 172 3500 
L 594 3500 
L 594 4494 
L 1172 4494 
z
" transform="scale(0.015625)"/>
      <path id="DejaVuSans-6f" d="M 1959 3097 
Q 1497 3097 1228 2736 
Q 959 2375 959 1747 
Q 959 1119 1226 758 
Q 1494 397 1959 397 
Q 2419 397 2687 759 
Q 2956 1122 2956 1747 
Q 2956 2369 2687 2733 
Q 2419 3097 1959 3097 
z
M 1959 3584 
Q 2709 3584 3137 3096 
Q 3566 2609 3566 1747 
Q 3566 888 3137 398 
Q 2709 -91 1959 -91 
Q 1206 -91 779 398 
Q 353 888 353 1747 
Q 353 2609 779 3096 
Q 1206 3584 1959 3584 
z
" transform="scale(0.015625)"/>
      <path id="DejaVuSans-63" d="M 3122 3366 
L 3122 2828 
Q 2878 2963 2633 3030 
Q 2388 3097 2138 3097 
Q 1578 3097 1268 2742 
Q 959 2388 959 1747 
Q 959 1106 1268 751 
Q 1578 397 2138 397 
Q 2388 397 2633 464 
Q 2878 531 3122 666 
L 3122 134 
Q 2881 22 2623 -34 
Q 2366 -91 2075 -91 
Q 1284 -91 818 406 
Q 353 903 353 1747 
Q 353 2603 823 3093 
Q 1294 3584 2113 3584 
Q 2378 3584 2631 3529 
Q 2884 3475 3122 3366 
z
" transform="scale(0.015625)"/>
      <path id="DejaVuSans-6b" d="M 581 4863 
L 1159 4863 
L 1159 1991 
L 2875 3500 
L 3609 3500 
L 1753 1863 
L 3688 0 
L 2938 0 
L 1159 1709 
L 1159 0 
L 581 0 
L 581 4863 
z
" transform="scale(0.015625)"/>
      <path id="DejaVuSans-20" transform="scale(0.015625)"/>
      <path id="DejaVuSans-50" d="M 1259 4147 
L 1259 2394 
L 2053 2394 
Q 2494 2394 2734 2622 
Q 2975 2850 2975 3272 
Q 2975 3691 2734 3919 
Q 2494 4147 2053 4147 
L 1259 4147 
z
M 628 4666 
L 2053 4666 
Q 2838 4666 3239 4311 
Q 3641 3956 3641 3272 
Q 3641 2581 3239 2228 
Q 2838 1875 2053 1875 
L 1259 1875 
L 1259 0 
L 628 0 
L 628 4666 
z
" transform="scale(0.015625)"/>
      <path id="DejaVuSans-72" d="M 2631 2963 
Q 2534 3019 2420 3045 
Q 2306 3072 2169 3072 
Q 1681 3072 1420 2755 
Q 1159 2438 1159 1844 
L 1159 0 
L 581 0 
L 581 3500 
L 1159 3500 
L 1159 2956 
Q 1341 3275 1631 3429 
Q 1922 3584 2338 3584 
Q 2397 3584 2469 3576 
Q 2541 3569 2628 3553 
L 2631 2963 
z
" transform="scale(0.015625)"/>
      <path id="DejaVuSans-69" d="M 603 3500 
L 1178 3500 
L 1178 0 
L 603 0 
L 603 3500 
z
M 603 4863 
L 1178 4863 
L 1178 4134 
L 603 4134 
L 603 4863 
z
" transform="scale(0.015625)"/>
      <path id="DejaVuSans-65" d="M 3597 1894 
L 3597 1613 
L 953 1613 
Q 991 1019 1311 708 
Q 1631 397 2203 397 
Q 2534 397 2845 478 
Q 3156 559 3463 722 
L 3463 178 
Q 3153 47 2828 -22 
Q 2503 -91 2169 -91 
Q 1331 -91 842 396 
Q 353 884 353 1716 
Q 353 2575 817 3079 
Q 1281 3584 2069 3584 
Q 2775 3584 3186 3129 
Q 3597 2675 3597 1894 
z
M 3022 2063 
Q 3016 2534 2758 2815 
Q 2500 3097 2075 3097 
Q 1594 3097 1305 2825 
Q 1016 2553 972 2059 
L 3022 2063 
z
" transform="scale(0.015625)"/>
      <path id="DejaVuSans-77" d="M 269 3500 
L 844 3500 
L 1563 769 
L 2278 3500 
L 2956 3500 
L 3675 769 
L 4391 3500 
L 4966 3500 
L 4050 0 
L 3372 0 
L 2619 2869 
L 1863 0 
L 1184 0 
L 269 3500 
z
" transform="scale(0.015625)"/>
      <path id="DejaVuSans-68" d="M 3513 2113 
L 3513 0 
L 2938 0 
L 2938 2094 
Q 2938 2591 2744 2837 
Q 2550 3084 2163 3084 
Q 1697 3084 1428 2787 
Q 1159 2491 1159 1978 
L 1159 0 
L 581 0 
L 581 4863 
L 1159 4863 
L 1159 2956 
Q 1366 3272 1645 3428 
Q 1925 3584 2291 3584 
Q 2894 3584 3203 3211 
Q 3513 2838 3513 2113 
z
" transform="scale(0.015625)"/>
      <path id="DejaVuSans-41" d="M 2188 4044 
L 1331 1722 
L 3047 1722 
L 2188 4044 
z
M 1831 4666 
L 2547 4666 
L 4325 0 
L 3669 0 
L 3244 1197 
L 1141 1197 
L 716 0 
L 50 0 
L 1831 4666 
z
" transform="scale(0.015625)"/>
      <path id="DejaVuSans-6e" d="M 3513 2113 
L 3513 0 
L 2938 0 
L 2938 2094 
Q 2938 2591 2744 2837 
Q 2550 3084 2163 3084 
Q 1697 3084 1428 2787 
Q 1159 2491 1159 1978 
L 1159 0 
L 581 0 
L 581 3500 
L 1159 3500 
L 1159 2956 
Q 1366 3272 1645 3428 
Q 1925 3584 2291 3584 
Q 2894 3584 3203 3211 
Q 3513 2838 3513 2113 
z
" transform="scale(0.015625)"/>
      <path id="DejaVuSans-6d" d="M 3328 2828 
Q 3544 3216 3844 3400 
Q 4144 3584 4550 3584 
Q 5097 3584 5394 3201 
Q 5691 2819 5691 2113 
L 5691 0 
L 5113 0 
L 5113 2094 
Q 5113 2597 4934 2840 
Q 4756 3084 4391 3084 
Q 3944 3084 3684 2787 
Q 3425 2491 3425 1978 
L 3425 0 
L 2847 0 
L 2847 2094 
Q 2847 2600 2669 2842 
Q 2491 3084 2119 3084 
Q 1678 3084 1418 2786 
Q 1159 2488 1159 1978 
L 1159 0 
L 581 0 
L 581 3500 
L 1159 3500 
L 1159 2956 
Q 1356 3278 1631 3431 
Q 1906 3584 2284 3584 
Q 2666 3584 2933 3390 
Q 3200 3197 3328 2828 
z
" transform="scale(0.015625)"/>
      <path id="DejaVuSans-61" d="M 2194 1759 
Q 1497 1759 1228 1600 
Q 959 1441 959 1056 
Q 959 750 1161 570 
Q 1363 391 1709 391 
Q 2188 391 2477 730 
Q 2766 1069 2766 1631 
L 2766 1759 
L 2194 1759 
z
M 3341 1997 
L 3341 0 
L 2766 0 
L 2766 531 
Q 2569 213 2275 61 
Q 1981 -91 1556 -91 
Q 1019 -91 701 211 
Q 384 513 384 1019 
Q 384 1609 779 1909 
Q 1175 2209 1959 2209 
L 2766 2209 
L 2766 2266 
Q 2766 2663 2505 2880 
Q 2244 3097 1772 3097 
Q 1472 3097 1187 3025 
Q 903 2953 641 2809 
L 641 3341 
Q 956 3463 1253 3523 
Q 1550 3584 1831 3584 
Q 2591 3584 2966 3190 
Q 3341 2797 3341 1997 
z
" transform="scale(0.015625)"/>
      <path id="DejaVuSans-6c" d="M 603 4863 
L 1178 4863 
L 1178 0 
L 603 0 
L 603 4863 
z
" transform="scale(0.015625)"/>
      <path id="DejaVuSans-73" d="M 2834 3397 
L 2834 2853 
Q 2591 2978 2328 3040 
Q 2066 3103 1784 3103 
Q 1356 3103 1142 2972 
Q 928 2841 928 2578 
Q 928 2378 1081 2264 
Q 1234 2150 1697 2047 
L 1894 2003 
Q 2506 1872 2764 1633 
Q 3022 1394 3022 966 
Q 3022 478 2636 193 
Q 2250 -91 1575 -91 
Q 1294 -91 989 -36 
Q 684 19 347 128 
L 347 722 
Q 666 556 975 473 
Q 1284 391 1588 391 
Q 1994 391 2212 530 
Q 2431 669 2431 922 
Q 2431 1156 2273 1281 
Q 2116 1406 1581 1522 
L 1381 1569 
Q 847 1681 609 1914 
Q 372 2147 372 2553 
Q 372 3047 722 3315 
Q 1072 3584 1716 3584 
Q 2034 3584 2315 3537 
Q 2597 3491 2834 3397 
z
" transform="scale(0.015625)"/>
      <path id="DejaVuSans-66" d="M 2375 4863 
L 2375 4384 
L 1825 4384 
Q 1516 4384 1395 4259 
Q 1275 4134 1275 3809 
L 1275 3500 
L 2222 3500 
L 2222 3053 
L 1275 3053 
L 1275 0 
L 697 0 
L 697 3053 
L 147 3053 
L 147 3500 
L 697 3500 
L 697 3744 
Q 697 4328 969 4595 
Q 1241 4863 1831 4863 
L 2375 4863 
z
" transform="scale(0.015625)"/>
      <path id="DejaVuSans-4c" d="M 628 4666 
L 1259 4666 
L 1259 531 
L 3531 531 
L 3531 0 
L 628 0 
L 628 4666 
z
" transform="scale(0.015625)"/>
      <path id="DejaVuSans-47" d="M 3809 666 
L 3809 1919 
L 2778 1919 
L 2778 2438 
L 4434 2438 
L 4434 434 
Q 4069 175 3628 42 
Q 3188 -91 2688 -91 
Q 1594 -91 976 548 
Q 359 1188 359 2328 
Q 359 3472 976 4111 
Q 1594 4750 2688 4750 
Q 3144 4750 3555 4637 
Q 3966 4525 4313 4306 
L 4313 3634 
Q 3963 3931 3569 4081 
Q 3175 4231 2741 4231 
Q 1884 4231 1454 3753 
Q 1025 3275 1025 2328 
Q 1025 1384 1454 906 
Q 1884 428 2741 428 
Q 3075 428 3337 486 
Q 3600 544 3809 666 
z
" transform="scale(0.015625)"/>
      <path id="DejaVuSans-c5d0" d="M 319 -1131 
L 319 4513 
L 3519 4513 
L 3519 -1131 
L 319 -1131 
z
M 678 -775 
L 3163 -775 
L 3163 4153 
L 678 4153 
L 678 -775 
z
" transform="scale(0.015625)"/>
      <path id="DejaVuSans-b108" d="M 319 -1131 
L 319 4513 
L 3519 4513 
L 3519 -1131 
L 319 -1131 
z
M 678 -775 
L 3163 -775 
L 3163 4153 
L 678 4153 
L 678 -775 
z
" transform="scale(0.015625)"/>
      <path id="DejaVuSans-c9c0" d="M 319 -1131 
L 319 4513 
L 3519 4513 
L 3519 -1131 
L 319 -1131 
z
M 678 -775 
L 3163 -775 
L 3163 4153 
L 678 4153 
L 678 -775 
z
" transform="scale(0.015625)"/>
      <path id="DejaVuSans-c194" d="M 319 -1131 
L 319 4513 
L 3519 4513 
L 3519 -1131 
L 319 -1131 
z
M 678 -775 
L 3163 -775 
L 3163 4153 
L 678 4153 
L 678 -775 
z
" transform="scale(0.015625)"/>
      <path id="DejaVuSans-b8e8" d="M 319 -1131 
L 319 4513 
L 3519 4513 
L 3519 -1131 
L 319 -1131 
z
M 678 -775 
L 3163 -775 
L 3163 4153 
L 678 4153 
L 678 -775 
z
" transform="scale(0.015625)"/>
      <path id="DejaVuSans-c158" d="M 319 -1131 
L 319 4513 
L 3519 4513 
L 3519 -1131 
L 319 -1131 
z
M 678 -775 
L 3163 -775 
L 3163 4153 
L 678 4153 
L 678 -775 
z
" transform="scale(0.015625)"/>
     </defs>
     <use xlink:href="#DejaVuSans-53"/>
     <use xlink:href="#DejaVuSans-74" x="63.476562"/>
     <use xlink:href="#DejaVuSans-6f" x="102.685547"/>
     <use xlink:href="#DejaVuSans-63" x="163.867188"/>
     <use xlink:href="#DejaVuSans-6b" x="218.847656"/>
     <use xlink:href="#DejaVuSans-20" x="276.757812"/>
     <use xlink:href="#DejaVuSans-50" x="308.544922"/>
     <use xlink:href="#DejaVuSans-72" x="367.097656"/>
     <use xlink:href="#DejaVuSans-69" x="408.210938"/>
     <use xlink:href="#DejaVuSans-63" x="435.994141"/>
     <use xlink:href="#DejaVuSans-65" x="490.974609"/>
     <use xlink:href="#DejaVuSans-20" x="552.498047"/>
     <use xlink:href="#DejaVuSans-77" x="584.285156"/>
     <use xlink:href="#DejaVuSans-69" x="666.072266"/>
     <use xlink:href="#DejaVuSans-74" x="693.855469"/>
     <use xlink:href="#DejaVuSans-68" x="733.064453"/>
     <use xlink:href="#DejaVuSans-20" x="796.443359"/>
     <use xlink:href="#DejaVuSans-41" x="828.230469"/>
     <use xlink:href="#DejaVuSans-6e" x="896.638672"/>
     <use xlink:href="#DejaVuSans-6f" x="960.017578"/>
     <use xlink:href="#DejaVuSans-6d" x="1021.199219"/>
     <use xlink:href="#DejaVuSans-61" x="1118.611328"/>
     <use xlink:href="#DejaVuSans-6c" x="1179.890625"/>
     <use xlink:href="#DejaVuSans-69" x="1207.673828"/>
     <use xlink:href="#DejaVuSans-65" x="1235.457031"/>
     <use xlink:href="#DejaVuSans-73" x="1296.980469"/>
     <use xlink:href="#DejaVuSans-20" x="1349.080078"/>
     <use xlink:href="#DejaVuSans-66" x="1380.867188"/>
     <use xlink:href="#DejaVuSans-6f" x="1416.072266"/>
     <use xlink:href="#DejaVuSans-72" x="1477.253906"/>
     <use xlink:href="#DejaVuSans-20" x="1518.367188"/>
     <use xlink:href="#DejaVuSans-4c" x="1550.154297"/>
     <use xlink:href="#DejaVuSans-47" x="1605.867188"/>
     <use xlink:href="#DejaVuSans-c5d0" x="1683.357422"/>
     <use xlink:href="#DejaVuSans-b108" x="1743.367188"/>
     <use xlink:href="#DejaVuSans-c9c0" x="1803.376953"/>
     <use xlink:href="#DejaVuSans-c194" x="1863.386719"/>
     <use xlink:href="#DejaVuSans-b8e8" x="1923.396484"/>
     <use xlink:href="#DejaVuSans-c158" x="1983.40625"/>
    </g>
   </g>
   <g id="legend_1">
    <g id="patch_2">
     <path d="M 687.384375 55.51375 
L 774.2 55.51375 
Q 776.2 55.51375 776.2 53.51375 
L 776.2 25.1575 
Q 776.2 23.1575 774.2 23.1575 
L 687.384375 23.1575 
Q 685.384375 23.1575 685.384375 25.1575 
L 685.384375 53.51375 
Q 685.384375 55.51375 687.384375 55.51375 
z
" style="fill: #ffffff; opacity: 0.8; stroke: #cccccc; stroke-linejoin: miter"/>
    </g>
    <g id="line2d_2">
     <path d="M 689.384375 31.255938 
L 699.384375 31.255938 
L 709.384375 31.255938 
" style="fill: none; stroke: #1f77b4; stroke-width: 1.5; stroke-linecap: square"/>
    </g>
    <g id="text_2">
     <!-- Close Price -->
     <g transform="translate(717.384375 34.755938) scale(0.1 -0.1)">
      <defs>
       <path id="DejaVuSans-43" d="M 4122 4306 
L 4122 3641 
Q 3803 3938 3442 4084 
Q 3081 4231 2675 4231 
Q 1875 4231 1450 3742 
Q 1025 3253 1025 2328 
Q 1025 1406 1450 917 
Q 1875 428 2675 428 
Q 3081 428 3442 575 
Q 3803 722 4122 1019 
L 4122 359 
Q 3791 134 3420 21 
Q 3050 -91 2638 -91 
Q 1578 -91 968 557 
Q 359 1206 359 2328 
Q 359 3453 968 4101 
Q 1578 4750 2638 4750 
Q 3056 4750 3426 4639 
Q 3797 4528 4122 4306 
z
" transform="scale(0.015625)"/>
      </defs>
      <use xlink:href="#DejaVuSans-43"/>
      <use xlink:href="#DejaVuSans-6c" x="69.824219"/>
      <use xlink:href="#DejaVuSans-6f" x="97.607422"/>
      <use xlink:href="#DejaVuSans-73" x="158.789062"/>
      <use xlink:href="#DejaVuSans-65" x="210.888672"/>
      <use xlink:href="#DejaVuSans-20" x="272.412109"/>
      <use xlink:href="#DejaVuSans-50" x="304.199219"/>
      <use xlink:href="#DejaVuSans-72" x="362.751953"/>
      <use xlink:href="#DejaVuSans-69" x="403.865234"/>
      <use xlink:href="#DejaVuSans-63" x="431.648438"/>
      <use xlink:href="#DejaVuSans-65" x="486.628906"/>
     </g>
    </g>
    <g id="PathCollection_2">
     <g>
      <use xlink:href="#m1f6a5c1c42" x="699.384375" y="46.809063" style="fill: #ff0000; stroke: #ff0000"/>
     </g>
    </g>
    <g id="text_3">
     <!-- Outlier -->
     <g transform="translate(717.384375 49.434063) scale(0.1 -0.1)">
      <defs>
       <path id="DejaVuSans-4f" d="M 2522 4238 
Q 1834 4238 1429 3725 
Q 1025 3213 1025 2328 
Q 1025 1447 1429 934 
Q 1834 422 2522 422 
Q 3209 422 3611 934 
Q 4013 1447 4013 2328 
Q 4013 3213 3611 3725 
Q 3209 4238 2522 4238 
z
M 2522 4750 
Q 3503 4750 4090 4092 
Q 4678 3434 4678 2328 
Q 4678 1225 4090 567 
Q 3503 -91 2522 -91 
Q 1538 -91 948 565 
Q 359 1222 359 2328 
Q 359 3434 948 4092 
Q 1538 4750 2522 4750 
z
" transform="scale(0.015625)"/>
       <path id="DejaVuSans-75" d="M 544 1381 
L 544 3500 
L 1119 3500 
L 1119 1403 
Q 1119 906 1312 657 
Q 1506 409 1894 409 
Q 2359 409 2629 706 
Q 2900 1003 2900 1516 
L 2900 3500 
L 3475 3500 
L 3475 0 
L 2900 0 
L 2900 538 
Q 2691 219 2414 64 
Q 2138 -91 1772 -91 
Q 1169 -91 856 284 
Q 544 659 544 1381 
z
M 1991 3584 
L 1991 3584 
z
" transform="scale(0.015625)"/>
      </defs>
      <use xlink:href="#DejaVuSans-4f"/>
      <use xlink:href="#DejaVuSans-75" x="78.710938"/>
      <use xlink:href="#DejaVuSans-74" x="142.089844"/>
      <use xlink:href="#DejaVuSans-6c" x="181.298828"/>
      <use xlink:href="#DejaVuSans-69" x="209.082031"/>
      <use xlink:href="#DejaVuSans-65" x="236.865234"/>
      <use xlink:href="#DejaVuSans-72" x="298.388672"/>
     </g>
    </g>
   </g>
  </g>
 </g>
 <defs>
  <clipPath id="p764b5848b1">
   <rect x="0" y="18.1575" width="781.2" height="388.08"/>
  </clipPath>
 </defs>
</svg>
